<?xml version="1.0" encoding="UTF-8" standalone="no"?><!DOCTYPE svg PUBLIC "-//W3C//DTD SVG 1.1//EN" "http://www.w3.org/Graphics/SVG/1.1/DTD/svg11.dtd"><svg width="100%" height="100%" viewBox="0 0 1499 445" version="1.1" xmlns="http://www.w3.org/2000/svg" xmlns:xlink="http://www.w3.org/1999/xlink" xml:space="preserve" xmlns:serif="http://www.serif.com/" style="fill-rule:evenodd;clip-rule:evenodd;stroke-miterlimit:10;"><g id="Layer_1-2"><path d="M101.5,444.94l1296,0" style="fill:none;stroke:#ccc;stroke-width:0.5px;"/><path d="M101.67,91.44l545,0" style="fill:none;stroke:#ccc;stroke-width:0.5px;"/><path d="M881.67,91.44l516,0" style="fill:none;stroke:#ccc;stroke-width:0.5px;"/><g><path d="M227.539,388.706l0,-45.219l-17.945,0l0,-5.367l43.067,0l0,5.367l-17.945,0l0,45.219l-7.177,0Z" style="fill:#ed1c24;fill-rule:nonzero;"/><path d="M259.77,388.706l0,-50.586l7.178,0l0,21.329l24.062,0l0,-21.329l7.178,0l0,50.586l-7.178,0l0,-23.891l-24.062,0l0,23.891l-7.178,0Z" style="fill:#ed1c24;fill-rule:nonzero;"/><path d="M311.211,388.706l0,-50.586l28.266,0l0,5.367l-21.089,0l0,16.235l17.671,0l0,5.298l-17.671,0l0,18.32l22.559,0l0,5.366l-29.736,0Z" style="fill:#ed1c24;fill-rule:nonzero;"/><path d="M371.298,388.706l0,-50.586l7.042,0l25.463,39.068l0,-39.068l6.153,0l0,50.586l-7.007,0l-25.498,-39.067l0,39.067l-6.153,0Z" style="fill:#ed1c24;fill-rule:nonzero;"/><path d="M423.012,388.706l0,-50.586l28.267,0l0,5.367l-21.089,0l0,16.235l17.671,0l0,5.298l-17.671,0l0,18.32l22.559,0l0,5.366l-29.737,0Z" style="fill:#ed1c24;fill-rule:nonzero;"/><path d="M454.97,388.706l16.783,-25.395l-15.962,-25.191l8.476,0l12.168,19.073l12.783,-19.073l6.768,0l-16.167,24.439l16.577,26.147l-8.476,0l-12.852,-20.063l-13.296,20.063l-6.802,0Z" style="fill:#ed1c24;fill-rule:nonzero;"/><path d="M516.801,388.706l0,-45.219l-17.944,0l0,-5.367l43.066,0l0,5.367l-17.944,0l0,45.219l-7.178,0Z" style="fill:#ed1c24;fill-rule:nonzero;"/><path d="M609.189,387.339c-6.129,1.755 -11.473,2.632 -16.03,2.632c-8.044,0 -14.213,-2.29 -18.508,-6.87c-4.296,-4.58 -6.443,-11.143 -6.443,-19.688c0,-8.385 2.176,-14.908 6.528,-19.567c4.352,-4.66 10.459,-6.99 18.32,-6.99c5.15,0 10.505,0.763 16.065,2.29l0,6.631c-6.973,-2.37 -12.316,-3.555 -16.031,-3.555c-5.468,0 -9.712,1.857 -12.731,5.571c-3.02,3.714 -4.529,8.944 -4.529,15.689c0,6.676 1.618,11.866 4.853,15.569c3.236,3.702 7.77,5.554 13.604,5.554c2.392,0 4.979,-0.422 7.759,-1.265l0,-16.474l7.143,0l0,20.473Z" style="fill:#ed1c24;fill-rule:nonzero;"/><path d="M621.767,388.706l0,-50.586l28.267,0l0,5.367l-21.089,0l0,16.235l17.671,0l0,5.298l-17.671,0l0,18.32l22.559,0l0,5.366l-29.737,0Z" style="fill:#ed1c24;fill-rule:nonzero;"/><path d="M659.707,388.706l0,-50.586l7.041,0l25.464,39.068l0,-39.068l6.152,0l0,50.586l-7.007,0l-25.498,-39.067l0,39.067l-6.152,0Z" style="fill:#ed1c24;fill-rule:nonzero;"/><path d="M711.421,388.706l0,-50.586l28.266,0l0,5.367l-21.089,0l0,16.235l17.671,0l0,5.298l-17.671,0l0,18.32l22.559,0l0,5.366l-29.736,0Z" style="fill:#ed1c24;fill-rule:nonzero;"/><path d="M749.36,388.706l0,-50.586l15.313,0c4.853,0 8.573,1.071 11.159,3.213c2.586,2.142 3.88,5.253 3.88,9.331c0,6.745 -3.407,11.53 -10.22,14.356l16.885,23.686l-8.819,0l-14.389,-21.396l-6.7,0l0,21.396l-7.109,0Zm7.109,-26.762l2.325,0c9.023,0 13.535,-3.544 13.535,-10.63c0,-5.218 -3.783,-7.827 -11.348,-7.827l-4.512,0l0,18.457Z" style="fill:#ed1c24;fill-rule:nonzero;"/><path d="M819.257,369.361l-8.613,-21.807l-8.647,21.807l17.26,0Zm7.588,19.345l-5.503,-14.013l-21.43,0l-5.572,14.013l-6.665,0l20.064,-50.586l7.109,0l19.756,50.586l-7.759,0Z" style="fill:#ed1c24;fill-rule:nonzero;"/><path d="M853.95,388.706l0,-45.219l-17.944,0l0,-5.367l43.066,0l0,5.367l-17.944,0l0,45.219l-7.178,0Z" style="fill:#ed1c24;fill-rule:nonzero;"/><rect x="886.147" y="338.12" width="7.178" height="50.586" style="fill:#ed1c24;fill-rule:nonzero;"/><path d="M926.718,389.971c-7.018,0 -12.663,-2.432 -16.936,-7.297c-4.272,-4.865 -6.408,-11.297 -6.408,-19.295c0,-8.043 2.147,-14.475 6.443,-19.294c4.295,-4.82 10.031,-7.229 17.209,-7.229c7.155,0 12.886,2.404 17.192,7.212c4.307,4.808 6.46,11.222 6.46,19.243c0,8.18 -2.153,14.669 -6.46,19.465c-4.306,4.797 -10.14,7.195 -17.5,7.195Zm0.103,-5.366c5.172,0 9.172,-1.863 11.997,-5.589c2.826,-3.725 4.238,-8.983 4.238,-15.774c0,-6.585 -1.418,-11.735 -4.255,-15.449c-2.837,-3.714 -6.762,-5.571 -11.775,-5.571c-5.036,0 -8.966,1.863 -11.792,5.588c-2.825,3.726 -4.238,8.904 -4.238,15.535c0,6.608 1.401,11.803 4.204,15.586c2.803,3.783 6.676,5.674 11.621,5.674Z" style="fill:#ed1c24;fill-rule:nonzero;"/><path d="M960.727,388.706l0,-50.586l7.041,0l25.464,39.068l0,-39.068l6.152,0l0,50.586l-7.006,0l-25.498,-39.067l0,39.067l-6.153,0Z" style="fill:#ed1c24;fill-rule:nonzero;"/><rect x="1034.56" y="338.12" width="7.178" height="50.586" style="fill:#ed1c24;fill-rule:nonzero;"/><path d="M1064.67,389.971c-3.396,0 -7.736,-0.741 -13.023,-2.222l0,-7.109c5.697,2.643 10.379,3.965 14.048,3.965c2.826,0 5.098,-0.741 6.819,-2.222c1.72,-1.481 2.58,-3.429 2.58,-5.845c0,-1.982 -0.564,-3.668 -1.691,-5.058c-1.128,-1.39 -3.208,-2.94 -6.238,-4.649l-3.487,-2.016c-4.306,-2.461 -7.343,-4.78 -9.108,-6.956c-1.766,-2.176 -2.649,-4.711 -2.649,-7.605c0,-3.896 1.412,-7.103 4.238,-9.621c2.825,-2.518 6.426,-3.777 10.801,-3.777c3.896,0 8.009,0.649 12.339,1.948l0,6.562c-5.332,-2.096 -9.309,-3.144 -11.929,-3.144c-2.484,0 -4.535,0.661 -6.153,1.982c-1.617,1.322 -2.426,2.985 -2.426,4.991c0,1.686 0.592,3.178 1.777,4.477c1.185,1.299 3.35,2.848 6.494,4.649l3.623,2.05c4.375,2.484 7.429,4.831 9.16,7.041c1.732,2.211 2.598,4.865 2.598,7.964c0,4.398 -1.623,7.93 -4.871,10.596c-3.247,2.666 -7.548,3.999 -12.902,3.999Z" style="fill:#ed1c24;fill-rule:nonzero;"/><path d="M1114.6,388.706l0,-50.586l7.178,0l0,21.329l24.062,0l0,-21.329l7.178,0l0,50.586l-7.178,0l0,-23.891l-24.062,0l0,23.891l-7.178,0Z" style="fill:#ed1c24;fill-rule:nonzero;"/><path d="M1166.05,388.706l0,-50.586l28.266,0l0,5.367l-21.089,0l0,16.235l17.671,0l0,5.298l-17.671,0l0,18.32l22.559,0l0,5.366l-29.736,0Z" style="fill:#ed1c24;fill-rule:nonzero;"/><path d="M1203.98,388.706l0,-50.586l15.313,0c4.853,0 8.573,1.071 11.159,3.213c2.586,2.142 3.88,5.253 3.88,9.331c0,6.745 -3.407,11.53 -10.22,14.356l16.885,23.686l-8.819,0l-14.389,-21.396l-6.7,0l0,21.396l-7.109,0Zm7.109,-26.762l2.325,0c9.023,0 13.535,-3.544 13.535,-10.63c0,-5.218 -3.783,-7.827 -11.348,-7.827l-4.512,0l0,18.457Z" style="fill:#ed1c24;fill-rule:nonzero;"/><path d="M1248.25,388.706l0,-50.586l28.266,0l0,5.367l-21.089,0l0,16.235l17.671,0l0,5.298l-17.671,0l0,18.32l22.559,0l0,5.366l-29.736,0Z" style="fill:#ed1c24;fill-rule:nonzero;"/><path d="M1287.35,388.706l0,-6.733l6.734,0l0,6.733l-6.734,0Zm0.855,-13.501l-0.855,-26.967l0,-10.118l6.734,0l0,10.118l-0.821,26.967l-5.058,0Z" style="fill:#ed1c24;fill-rule:nonzero;"/></g><path d="M567.49,178.81c0,-3.94 0,-7.11 -0.13,-9.49c0.023,-1.861 -0.316,-3.709 -1,-5.44c-0.548,-1.202 -1.569,-2.126 -2.82,-2.55c-1.79,-0.557 -3.633,-0.925 -5.5,-1.1c-0.442,-0.006 -0.838,-0.279 -1,-0.69c-0.223,-0.427 -0.365,-0.892 -0.42,-1.37c-0.038,-0.477 0.059,-0.955 0.28,-1.38c0.214,-0.445 0.677,-0.718 1.17,-0.69c2.667,-0.18 5.667,-0.453 9,-0.82c3.429,-0.381 6.816,-1.074 10.12,-2.07c1.28,-0.36 2.13,-0.29 2.54,0.21c0.387,0.451 0.649,0.996 0.76,1.58l0,39.5c0,0.18 0,0.27 0.14,0.27c0.178,0.002 0.341,-0.105 0.41,-0.27c1.972,-2.884 4.527,-5.324 7.5,-7.16c3.606,-2.2 7.778,-3.299 12,-3.16c3.647,-0.071 7.251,0.804 10.46,2.54c2.995,1.677 5.597,3.975 7.63,6.74c2.132,2.929 3.717,6.218 4.68,9.71c1.058,3.711 1.59,7.551 1.58,11.41c0.123,5.389 -0.835,10.748 -2.82,15.76c-1.698,4.186 -4.304,7.943 -7.63,11c-3.232,2.901 -7.028,5.103 -11.15,6.47c-4.307,1.456 -8.824,2.196 -13.37,2.19c-3.449,-0.016 -6.894,-0.223 -10.32,-0.62c-4.137,-0.537 -8.2,-1.544 -12.11,-3l0,-67.57Zm12.94,56c0.133,0.894 0.476,1.744 1,2.48c0.717,1.191 1.622,2.258 2.68,3.16c1.248,1.08 2.638,1.985 4.13,2.69c1.654,0.79 3.467,1.19 5.3,1.17c2.92,0.105 5.804,-0.687 8.26,-2.27c2.248,-1.577 4.05,-3.71 5.23,-6.19c1.347,-2.846 2.251,-5.881 2.68,-9c0.515,-3.553 0.769,-7.14 0.76,-10.73c0.01,-3.009 -0.177,-6.015 -0.56,-9c-0.295,-2.539 -0.97,-5.02 -2,-7.36c-0.885,-1.998 -2.286,-3.724 -4.06,-5c-2.043,-1.322 -4.45,-1.969 -6.88,-1.85c-2.273,-0.023 -4.524,0.445 -6.6,1.37c-1.895,0.839 -3.657,1.951 -5.23,3.3c-1.399,1.2 -2.565,2.647 -3.44,4.27c-0.742,1.256 -1.167,2.673 -1.24,4.13l-0.03,28.83Z" style="fill:#fff;fill-rule:nonzero;"/><path d="M645.1,213.49c-0.46,0 -0.71,0.16 -0.76,0.48c-0.044,0.388 -0.064,0.779 -0.06,1.17c-0.095,4.094 0.438,8.178 1.58,12.11c0.869,2.969 2.37,5.715 4.4,8.05c1.837,2.03 4.155,3.568 6.74,4.47c2.725,0.934 5.589,1.398 8.47,1.37c3.042,0.006 6.08,-0.245 9.08,-0.75c2.775,-0.439 5.387,-1.602 7.57,-3.37c0.391,-0.351 0.921,-0.506 1.44,-0.42c0.48,0.082 0.917,0.326 1.24,0.69c0.313,0.351 0.527,0.779 0.62,1.24c0.096,0.434 -0.006,0.889 -0.28,1.24c-2.508,3.52 -5.932,6.287 -9.9,8c-9.058,3.026 -18.875,2.927 -27.87,-0.28c-3.799,-1.514 -7.193,-3.894 -9.91,-6.95c-2.645,-3.034 -4.616,-6.597 -5.78,-10.45c-1.263,-4.216 -1.887,-8.599 -1.85,-13c-0.025,-4.366 0.744,-8.7 2.27,-12.79c1.412,-3.88 3.589,-7.437 6.4,-10.46c2.772,-2.945 6.09,-5.322 9.77,-7c3.932,-1.777 8.206,-2.668 12.52,-2.61c3.605,-0.046 7.183,0.634 10.52,2c3.041,1.246 5.784,3.12 8.05,5.5c2.264,2.427 4.019,5.283 5.16,8.4c1.26,3.366 1.89,6.936 1.86,10.53c0,1.92 -0.69,2.89 -2.06,2.89l-39.22,-0.06Zm25.18,-4.82c1.29,0 2,-0.46 2.2,-1.38c0.204,-1.088 0.298,-2.193 0.28,-3.3c0.005,-1.893 -0.299,-3.775 -0.9,-5.57c-0.556,-1.722 -1.417,-3.331 -2.54,-4.75c-1.087,-1.368 -2.45,-2.492 -4,-3.3c-1.66,-0.852 -3.505,-1.278 -5.37,-1.24c-2.205,-0.055 -4.394,0.393 -6.4,1.31c-1.73,0.828 -3.275,1.998 -4.54,3.44c-1.265,1.461 -2.224,3.161 -2.82,5c-0.647,1.952 -1.106,3.961 -1.37,6c-0.175,0.885 -0.245,1.788 -0.21,2.69c0,0.69 0.25,1 0.62,1l25.05,0.1Z" style="fill:#fff;fill-rule:nonzero;"/><path d="M740.46,233.71c0,3.207 0.297,5.453 0.89,6.74c0.646,1.314 2.054,2.089 3.51,1.93c0.84,0.027 1.678,-0.088 2.48,-0.34c0.961,-0.393 1.882,-0.879 2.75,-1.45c0.273,-0.179 0.627,-0.179 0.9,0c0.324,0.193 0.603,0.452 0.82,0.76c0.232,0.331 0.396,0.705 0.48,1.1c0.09,0.357 -0.012,0.737 -0.27,1c-3.58,4.313 -7.8,6.47 -12.66,6.47c-2.443,0.066 -4.84,-0.683 -6.81,-2.13c-1.784,-1.302 -3.225,-3.018 -4.2,-5c-0.18,-0.45 -0.46,-0.5 -0.82,-0.13c-2.485,2.17 -5.296,3.935 -8.33,5.23c-3.782,1.503 -7.831,2.221 -11.9,2.11c-5.227,0 -9.263,-1.4 -12.11,-4.2c-2.847,-2.8 -4.27,-6.767 -4.27,-11.9c0,-6.6 3.073,-11.667 9.22,-15.2c6.147,-3.533 15.093,-5.3 26.84,-5.3c0.18,0 0.32,-0.23 0.41,-0.69c0.124,-1.049 0.17,-2.105 0.14,-3.16l0,-3.72c0.007,-2.169 -0.177,-4.334 -0.55,-6.47c-0.316,-1.859 -0.945,-3.651 -1.86,-5.3c-0.868,-1.501 -2.13,-2.736 -3.65,-3.57c-1.783,-0.924 -3.773,-1.375 -5.78,-1.31c-2.884,-0.128 -5.745,0.566 -8.25,2c-1.92,1.007 -3.14,2.992 -3.17,5.16c0.017,1.079 0.366,2.127 1,3c0.63,0.875 0.978,1.922 1,3c-0.086,1.457 -0.788,2.811 -1.93,3.72c-1.267,1.182 -2.948,1.821 -4.68,1.78c-2.473,0 -4.24,-0.667 -5.3,-2c-1.073,-1.396 -1.631,-3.12 -1.58,-4.88c0.004,-2.32 0.674,-4.59 1.93,-6.54c1.342,-2.122 3.126,-3.929 5.23,-5.3c2.38,-1.542 4.975,-2.725 7.7,-3.51c2.994,-0.876 6.1,-1.314 9.22,-1.3c7.333,0 13.113,1.697 17.34,5.09c4.227,3.393 6.337,9.033 6.33,16.92l-0.07,27.39Zm-12.93,-13.62c0.035,-0.623 -0.012,-1.249 -0.14,-1.86c-0.09,-0.23 -0.33,-0.34 -0.69,-0.34c-7.52,0.667 -13.093,2.25 -16.72,4.75c-3.627,2.5 -5.437,5.733 -5.43,9.7c-0.086,2.478 0.638,4.919 2.06,6.95c1.38,1.88 3.673,2.82 6.88,2.82c2.278,-0.029 4.534,-0.449 6.67,-1.24c2.289,-0.798 4.411,-2.012 6.26,-3.58c0.652,-0.553 1.053,-1.347 1.11,-2.2l0,-15Z" style="fill:#fff;fill-rule:nonzero;"/><path d="M764.68,214.86c-0.018,3.373 0.398,6.734 1.24,10c0.747,3.001 2.027,5.842 3.78,8.39c1.685,2.423 3.928,4.405 6.54,5.78c2.985,1.495 6.294,2.227 9.63,2.13c3.155,0.004 6.305,-0.246 9.42,-0.75c2.871,-0.416 5.568,-1.632 7.78,-3.51c0.307,-0.351 0.795,-0.489 1.24,-0.35c0.457,0.142 0.879,0.377 1.24,0.69c0.353,0.314 0.612,0.719 0.75,1.17c0.145,0.42 0.07,0.887 -0.2,1.24c-2.628,3.734 -6.324,6.589 -10.6,8.19c-4.615,1.519 -9.453,2.25 -14.31,2.16c-3.728,-0.01 -7.434,-0.566 -11,-1.65c-3.689,-1.1 -7.099,-2.98 -10,-5.51c-3.158,-2.834 -5.619,-6.359 -7.19,-10.3c-1.833,-4.26 -2.75,-9.557 -2.75,-15.89c-0.025,-4.346 0.745,-8.66 2.27,-12.73c1.435,-3.873 3.686,-7.393 6.6,-10.32c3.053,-2.993 6.684,-5.334 10.67,-6.88c4.653,-1.769 9.603,-2.632 14.58,-2.54c2.625,0.009 5.238,0.345 7.78,1c2.381,0.581 4.655,1.532 6.74,2.82c1.899,1.174 3.52,2.747 4.75,4.61c1.193,1.842 1.816,3.996 1.79,6.19c-0.017,1.699 -0.597,3.346 -1.65,4.68c-1.107,1.467 -2.85,2.2 -5.23,2.2c-1.711,0.072 -3.394,-0.463 -4.75,-1.51c-1.276,-1.092 -1.965,-2.724 -1.86,-4.4c-0.052,-1.141 0.302,-2.265 1,-3.17c0.594,-0.64 0.948,-1.468 1,-2.34c0,-1.647 -1.1,-2.907 -3.3,-3.78c-2.329,-0.894 -4.806,-1.338 -7.3,-1.31c-3.062,-0.107 -6.093,0.656 -8.74,2.2c-2.349,1.482 -4.326,3.484 -5.78,5.85c-1.556,2.541 -2.65,5.338 -3.23,8.26c-0.624,3.087 -0.929,6.23 -0.91,9.38Z" style="fill:#fff;fill-rule:nonzero;"/><path d="M870.9,215.27c0.091,5.054 -0.698,10.086 -2.33,14.87c-1.416,4.06 -3.696,7.765 -6.68,10.86c-2.93,2.961 -6.478,5.238 -10.39,6.67c-4.323,1.584 -8.896,2.373 -13.5,2.33c-4.098,0.044 -8.168,-0.679 -12,-2.13c-3.6,-1.373 -6.847,-3.536 -9.5,-6.33c-2.818,-3.059 -4.973,-6.668 -6.33,-10.6c-1.654,-4.848 -2.446,-9.949 -2.34,-15.07c-0.037,-4.404 0.775,-8.773 2.39,-12.87c1.456,-3.754 3.684,-7.161 6.54,-10c2.901,-2.812 6.34,-5.009 10.11,-6.46c4.126,-1.593 8.517,-2.387 12.94,-2.34c4.238,-0.045 8.452,0.652 12.45,2.06c3.664,1.29 7.016,3.334 9.84,6c2.829,2.731 5.036,6.039 6.47,9.7c1.625,4.245 2.417,8.765 2.33,13.31Zm-14.44,1.52c0.006,-3.405 -0.225,-6.807 -0.69,-10.18c-0.386,-3.043 -1.222,-6.012 -2.48,-8.81c-1.096,-2.451 -2.8,-4.582 -4.95,-6.19c-2.38,-1.641 -5.232,-2.463 -8.12,-2.34c-3.148,-0.142 -6.266,0.674 -8.94,2.34c-2.322,1.584 -4.196,3.74 -5.44,6.26c-1.387,2.79 -2.316,5.785 -2.75,8.87c-0.516,3.416 -0.77,6.866 -0.76,10.32c0.008,3.225 0.238,6.446 0.69,9.64c0.4,3.097 1.281,6.114 2.61,8.94c1.226,2.584 3.041,4.845 5.3,6.6c2.486,1.823 5.52,2.747 8.6,2.62c3.083,0.145 6.13,-0.726 8.67,-2.48c2.235,-1.69 4.009,-3.915 5.16,-6.47c1.291,-2.852 2.128,-5.889 2.48,-9c0.412,-3.358 0.619,-6.737 0.62,-10.12Z" style="fill:#fff;fill-rule:nonzero;"/><path d="M891.27,231.92c0,2.3 0.05,4.22 0.14,5.78c0.039,1.32 0.296,2.624 0.76,3.86c0.397,0.991 1.125,1.814 2.06,2.33c1.267,0.656 2.643,1.077 4.06,1.24c0.501,0.069 0.951,0.345 1.24,0.76c0.278,0.431 0.421,0.937 0.41,1.45c-0.005,0.464 -0.148,0.917 -0.41,1.3c-0.272,0.414 -0.746,0.651 -1.24,0.62c-1.727,-0.07 -3.45,-0.23 -5.16,-0.48c-2.624,-0.326 -5.266,-0.486 -7.91,-0.48c-2.854,-0.005 -5.705,0.155 -8.54,0.48c-2.555,0.308 -5.126,0.468 -7.7,0.48c-0.452,0.009 -0.874,-0.229 -1.1,-0.62c-0.27,-0.38 -0.416,-0.834 -0.42,-1.3c-0.013,-0.515 0.134,-1.022 0.42,-1.45c0.285,-0.417 0.738,-0.691 1.24,-0.75c1.799,-0.172 3.573,-0.545 5.29,-1.11c1.122,-0.363 2.093,-1.088 2.76,-2.06c0.628,-1.09 0.972,-2.322 1,-3.58c0.09,-1.47 0.14,-3.35 0.14,-5.64l0,-17.34c0,-4.493 -0.047,-8.23 -0.14,-11.21c-0.023,-2.397 -0.359,-4.78 -1,-7.09c-0.375,-1.503 -1.309,-2.809 -2.61,-3.65c-1.585,-0.759 -3.336,-1.103 -5.09,-1c-0.497,0.025 -0.98,-0.177 -1.31,-0.55c-0.309,-0.339 -0.48,-0.781 -0.48,-1.24c-0.017,-0.501 0.154,-0.99 0.48,-1.37c0.33,-0.373 0.813,-0.575 1.31,-0.55c2.564,-0.086 5.118,-0.363 7.64,-0.83c3.46,-0.577 6.883,-1.358 10.25,-2.34c1.021,-0.43 2.213,-0.117 2.89,0.76c0.657,0.861 1.009,1.917 1,3l0,5.5c-0.019,0.151 0.068,0.296 0.21,0.35c0.13,0 0.25,0 0.34,-0.21c0.794,-1.199 1.691,-2.327 2.68,-3.37c2.649,-2.815 5.93,-4.96 9.57,-6.26c2.164,-0.762 4.446,-1.135 6.74,-1.1c6.88,0 12.27,1.903 16.17,5.71c3.9,3.807 5.85,9.973 5.85,18.5l0,23.53c0,2.48 0.067,4.5 0.2,6.06c0.087,1.313 0.426,2.596 1,3.78c0.516,0.975 1.343,1.75 2.35,2.2c1.423,0.612 2.93,1.006 4.47,1.17c0.501,0.069 0.951,0.345 1.24,0.76c0.278,0.431 0.421,0.937 0.41,1.45c-0.005,0.464 -0.148,0.917 -0.41,1.3c-0.272,0.414 -0.746,0.651 -1.24,0.62c-1.957,-0.058 -3.91,-0.218 -5.85,-0.48c-5.508,-0.64 -11.072,-0.64 -16.58,0c-2.192,0.288 -4.399,0.448 -6.61,0.48c-0.451,0.007 -0.873,-0.23 -1.1,-0.62c-0.262,-0.383 -0.405,-0.836 -0.41,-1.3c-0.011,-0.513 0.132,-1.019 0.41,-1.45c0.289,-0.415 0.739,-0.691 1.24,-0.76c1.596,-0.15 3.154,-0.569 4.61,-1.24c0.994,-0.494 1.811,-1.284 2.34,-2.26c0.541,-1.119 0.844,-2.338 0.89,-3.58c0.09,-1.42 0.14,-3.19 0.14,-5.3l0,-20.99c0,-2.293 -0.09,-4.587 -0.27,-6.88c-0.149,-2.135 -0.663,-4.229 -1.52,-6.19c-0.787,-1.791 -2.015,-3.353 -3.57,-4.54c-1.901,-1.292 -4.176,-1.921 -6.47,-1.79c-2.473,-0.05 -4.932,0.396 -7.23,1.31c-1.962,0.8 -3.739,1.995 -5.22,3.51c-1.432,1.472 -2.536,3.231 -3.24,5.16c-0.737,2.004 -1.11,4.124 -1.1,6.26l-0.02,23.25Z" style="fill:#fff;fill-rule:nonzero;"/><path d="M726.48,147.84c-23.357,-6.565 -39.615,-28.022 -39.615,-52.284c0,-29.794 24.517,-54.31 54.31,-54.31c3.995,0 7.977,0.441 11.875,1.314l-4.43,15.72c-2.442,-0.486 -4.925,-0.73 -7.415,-0.73c-20.846,0 -38,17.153 -38,38c0,20.846 17.154,38 38,38c16.965,0 31.972,-11.361 36.575,-27.69l15.68,4.41c-8.098,28.654 -38.306,45.598 -66.98,37.57Z" style="fill:#528093;fill-rule:nonzero;"/><path d="M794.9,103.48l-15.9,-4.48c1.504,-16.71 -8.198,-32.537 -23.77,-38.78l4.42,-15.72c24.165,8.773 38.968,33.542 35.25,58.98Z" style="fill:#ec1c24;fill-rule:nonzero;"/><path d="M817.26,109.77l-15.77,-4.44c4.662,-29.052 -12.262,-57.556 -40,-67.37l4.51,-15.72c36.293,12.338 58.255,49.84 51.26,87.53Z" style="fill:#b4191e;fill-rule:nonzero;"/><path d="M767.8,15.69l4.41,-15.69c48.464,15.808 77.645,66.075 67.34,116l-15.72,-4.43c7.94,-41.291 -16.158,-82.529 -56.03,-95.88Z" style="fill:#95171a;fill-rule:nonzero;"/><path d="M589.29,279l-5.78,0l-1.31,3.58l-1.13,0l4.82,-12.74l1,0l4.82,12.74l-1.12,0l-1.3,-3.58Zm-5.45,-0.91l5.16,0l-2.55,-6.93l-2.61,6.93Z" style="fill:#f1f1f2;fill-rule:nonzero;"/><path d="M594.69,281.67l6.31,0l0,0.91l-7.4,0l0,-12.74l1.09,0l0,11.83Z" style="fill:#f1f1f2;fill-rule:nonzero;"/><path d="M604.14,279.14l0.4,2l0.48,-1.89l2.76,-9.39l1,0l2.73,9.39l0.48,1.91l0.42,-2l2.3,-9.3l1.1,0l-3.26,12.74l-1,0l-2.88,-10l-0.33,-1.26l-0.31,1.26l-3,10l-1,0l-3.25,-12.74l1.1,0l2.26,9.28Z" style="fill:#f1f1f2;fill-rule:nonzero;"/><path d="M624.35,279l-5.78,0l-1.31,3.58l-1.13,0l4.87,-12.74l1,0l4.82,12.74l-1.12,0l-1.35,-3.58Zm-5.45,-0.91l5.1,0l-2.55,-6.93l-2.55,6.93Z" style="fill:#f1f1f2;fill-rule:nonzero;"/><path d="M631.58,276.79l3.89,-7l1.24,0l-4.6,8l0,4.79l-1.11,0l0,-4.79l-4.6,-8l1.28,0l3.9,7Z" style="fill:#f1f1f2;fill-rule:nonzero;"/><path d="M645.64,279.45c0.028,-0.646 -0.25,-1.269 -0.75,-1.68c-0.824,-0.56 -1.747,-0.957 -2.72,-1.17c-1.024,-0.241 -2,-0.65 -2.89,-1.21c-0.805,-0.549 -1.288,-1.463 -1.288,-2.437c0,-0.935 0.445,-1.817 1.198,-2.373c0.896,-0.638 1.981,-0.958 3.08,-0.91c0.784,-0.014 1.561,0.154 2.27,0.49c0.634,0.299 1.171,0.77 1.55,1.36c0.376,0.598 0.567,1.294 0.55,2l-1.08,0c0.03,-0.799 -0.301,-1.571 -0.9,-2.1c-0.669,-0.555 -1.523,-0.837 -2.39,-0.79c-0.827,-0.042 -1.645,0.186 -2.33,0.65c-0.562,0.384 -0.89,1.03 -0.87,1.71c-0.01,0.621 0.281,1.21 0.78,1.58c0.756,0.517 1.605,0.884 2.5,1.08c0.9,0.228 1.77,0.564 2.59,1c0.538,0.28 0.996,0.693 1.33,1.2c0.307,0.495 0.463,1.068 0.45,1.65c0.025,0.955 -0.425,1.862 -1.2,2.42c-0.929,0.642 -2.042,0.962 -3.17,0.91c-0.849,0.013 -1.691,-0.154 -2.47,-0.49c-0.689,-0.269 -1.284,-0.735 -1.71,-1.34c-0.393,-0.591 -0.596,-1.29 -0.58,-2l1.07,0c-0.034,0.83 0.34,1.626 1,2.13c0.78,0.554 1.725,0.829 2.68,0.78c0.844,0.041 1.678,-0.19 2.38,-0.66c0.598,-0.399 0.947,-1.082 0.92,-1.8Z" style="fill:#f1f1f2;fill-rule:nonzero;"/><path d="M656.26,276.26l-1.79,1.74l0,4.56l-1.08,0l0,-12.72l1.08,0l0,6.87l6.53,-6.87l1.35,0l-5.35,5.67l5.74,7.07l-1.31,0l-5.17,-6.32Z" style="fill:#f1f1f2;fill-rule:nonzero;"/><path d="M674.18,282.58l-1.08,0l-7.32,-10.9l0,10.9l-1.08,0l0,-12.74l1.08,0l7.33,10.91l0,-10.91l1.07,0l0,12.74Z" style="fill:#f1f1f2;fill-rule:nonzero;"/><path d="M686.83,276.9c0.026,1.062 -0.183,2.117 -0.61,3.09c-0.361,0.843 -0.967,1.557 -1.74,2.05c-0.778,0.487 -1.682,0.737 -2.6,0.72c-1.383,0.044 -2.713,-0.546 -3.61,-1.6c-0.966,-1.222 -1.453,-2.755 -1.37,-4.31l0,-1.31c-0.019,-1.059 0.192,-2.111 0.62,-3.08c0.729,-1.734 2.46,-2.846 4.34,-2.79c0.913,-0.016 1.813,0.23 2.59,0.71c0.761,0.485 1.365,1.179 1.74,2c0.426,0.942 0.645,1.966 0.64,3l0,1.52Zm-1.08,-1.38c0.089,-1.279 -0.264,-2.55 -1,-3.6c-0.708,-0.832 -1.747,-1.312 -2.84,-1.312c-1.093,0 -2.132,0.48 -2.84,1.312c-0.74,1.067 -1.093,2.355 -1,3.65l0,1.33c-0.085,1.275 0.268,2.542 1,3.59c0.71,0.836 1.753,1.318 2.85,1.318c1.097,0 2.14,-0.482 2.85,-1.318c0.732,-1.067 1.084,-2.349 1,-3.64l-0.02,-1.33Z" style="fill:#f1f1f2;fill-rule:nonzero;"/><path d="M691.89,279.14l0.4,2l0.48,-1.89l2.76,-9.39l1,0l2.73,9.39l0.48,1.91l0.42,-2l2.3,-9.3l1.1,0l-3.26,12.74l-1,0l-2.88,-10l-0.33,-1.26l-0.31,1.26l-3,10l-1,0l-3.25,-12.74l1.1,0l2.26,9.28Z" style="fill:#f1f1f2;fill-rule:nonzero;"/><rect x="710.19" y="269.84" width="1.08" height="12.74" style="fill:#f1f1f2;fill-rule:nonzero;"/><path d="M721.74,276.62l-5.94,0l0,6l-1.07,0l0,-12.78l7.89,0l0,0.91l-6.82,0l0,5l5.94,0l0,0.87Z" style="fill:#f1f1f2;fill-rule:nonzero;"/><path d="M732.9,276.79l3.89,-7l1.21,0l-4.6,8l0,4.79l-1.08,0l0,-4.79l-4.59,-8l1.27,0l3.9,7Z" style="fill:#f1f1f2;fill-rule:nonzero;"/><path d="M749,276.9c0.024,1.061 -0.181,2.115 -0.6,3.09c-0.741,1.726 -2.473,2.828 -4.35,2.77c-1.38,0.044 -2.707,-0.546 -3.6,-1.6c-0.97,-1.22 -1.458,-2.754 -1.37,-4.31l0,-1.31c-0.022,-1.059 0.186,-2.11 0.61,-3.08c0.365,-0.848 0.974,-1.569 1.75,-2.07c0.778,-0.487 1.682,-0.737 2.6,-0.72c0.913,-0.015 1.812,0.231 2.59,0.71c0.761,0.485 1.365,1.179 1.74,2c0.423,0.943 0.638,1.966 0.63,3l0,1.52Zm-1,-1.38c0.085,-1.278 -0.268,-2.548 -1,-3.6c-0.708,-0.832 -1.747,-1.312 -2.84,-1.312c-1.093,0 -2.132,0.48 -2.84,1.312c-0.766,1.057 -1.14,2.348 -1.06,3.65l0,1.33c-0.085,1.275 0.268,2.542 1,3.59c0.71,0.836 1.753,1.318 2.85,1.318c1.097,0 2.14,-0.482 2.85,-1.318c0.736,-1.065 1.089,-2.349 1,-3.64l0.04,-1.33Z" style="fill:#f1f1f2;fill-rule:nonzero;"/><path d="M760.53,269.84l0,8.7c0.009,0.784 -0.188,1.556 -0.57,2.24c-0.368,0.634 -0.919,1.143 -1.58,1.46c-0.726,0.36 -1.529,0.539 -2.34,0.52c-1.174,0.056 -2.326,-0.337 -3.22,-1.1c-0.826,-0.776 -1.284,-1.867 -1.26,-3l0,-8.78l1.07,0l0,8.62c-0.055,0.925 0.279,1.831 0.92,2.5c0.677,0.617 1.575,0.938 2.49,0.89c0.917,0.049 1.816,-0.276 2.49,-0.9c0.639,-0.662 0.973,-1.562 0.92,-2.48l0,-8.63l1.08,-0.04Z" style="fill:#f1f1f2;fill-rule:nonzero;"/><path d="M768.29,277.27l-3.7,0l0,5.31l-1.09,0l0,-12.74l4.14,0c1.149,-0.065 2.284,0.29 3.19,1c1.338,1.302 1.518,3.411 0.42,4.92c-0.481,0.629 -1.156,1.082 -1.92,1.29l3.18,5.43l0,0.11l-1.14,0l-3.08,-5.32Zm-3.7,-0.91l3.3,0c0.799,0.035 1.581,-0.241 2.18,-0.77c1.112,-1.126 1.112,-2.964 0,-4.09c-0.683,-0.538 -1.542,-0.806 -2.41,-0.75l-3,0l-0.07,5.61Z" style="fill:#f1f1f2;fill-rule:nonzero;"/><path d="M788.74,282.58l-1.07,0l-7.33,-10.9l0,10.9l-1.08,0l0,-12.74l1.08,0l7.33,10.91l0,-10.91l1.07,0l0,12.74Z" style="fill:#f1f1f2;fill-rule:nonzero;"/><path d="M799,276.48l-6,0l0,5.19l6.85,0l0,0.91l-7.85,0l0,-12.74l7.88,0l0,0.91l-6.81,0l0,4.82l6,0l-0.07,0.91Z" style="fill:#f1f1f2;fill-rule:nonzero;"/><path d="M811,270.75l-4.37,0l0,11.83l-1.07,0l0,-11.83l-4.36,0l0,-0.91l9.8,0l0,0.91Z" style="fill:#f1f1f2;fill-rule:nonzero;"/><path d="M815.53,279.14l0.39,2l0.48,-1.89l2.77,-9.39l1,0l2.73,9.39l0.47,1.91l0.42,-2l2.3,-9.3l1.1,0l-3.26,12.74l-1,0l-2.89,-10l-0.32,-1.26l-0.32,1.26l-3,10l-1,0l-3.25,-12.74l1.1,0l2.28,9.28Z" style="fill:#f1f1f2;fill-rule:nonzero;"/><path d="M838.65,276.9c0.014,1.069 -0.208,2.127 -0.65,3.1c-0.358,0.819 -0.95,1.514 -1.7,2c-0.778,0.487 -1.682,0.737 -2.6,0.72c-1.383,0.044 -2.713,-0.546 -3.61,-1.6c-0.966,-1.222 -1.453,-2.755 -1.37,-4.31l0,-1.31c-0.019,-1.059 0.192,-2.111 0.62,-3.08c0.729,-1.734 2.46,-2.846 4.34,-2.79c0.913,-0.016 1.813,0.23 2.59,0.71c0.761,0.485 1.365,1.179 1.74,2c0.426,0.942 0.645,1.966 0.64,3l0,1.56Zm-1.08,-1.38c0.089,-1.279 -0.264,-2.55 -1,-3.6c-0.708,-0.832 -1.747,-1.312 -2.84,-1.312c-1.093,0 -2.132,0.48 -2.84,1.312c-0.758,1.06 -1.128,2.349 -1.05,3.65l0,1.33c-0.07,1.281 0.301,2.549 1.05,3.59c0.71,0.836 1.753,1.318 2.85,1.318c1.097,0 2.14,-0.482 2.85,-1.318c0.732,-1.067 1.084,-2.349 1,-3.64l-0.02,-1.33Z" style="fill:#f1f1f2;fill-rule:nonzero;"/><path d="M846.12,277.27l-3.7,0l0,5.31l-1.09,0l0,-12.74l4.14,0c1.149,-0.065 2.284,0.29 3.19,1c1.338,1.302 1.518,3.411 0.42,4.92c-0.481,0.629 -1.156,1.082 -1.92,1.29l3.18,5.43l0,0.11l-1.14,0l-3.08,-5.32Zm-3.7,-0.91l3.3,0c0.797,0.042 1.578,-0.235 2.17,-0.77c1.118,-1.124 1.118,-2.966 0,-4.09c-0.683,-0.538 -1.542,-0.806 -2.41,-0.75l-3,0l-0.06,5.61Z" style="fill:#f1f1f2;fill-rule:nonzero;"/><path d="M855.6,276.26l-1.79,1.74l0,4.56l-1.08,0l0,-12.72l1.08,0l0,6.87l6.52,-6.87l1.36,0l-5.34,5.67l5.75,7.07l-1.31,0l-5.19,-6.32Z" style="fill:#f1f1f2;fill-rule:nonzero;"/><path d="M869.48,281.67l6.29,0l0,0.91l-7.38,0l0,-12.74l1.09,0l0,11.83Z" style="fill:#f1f1f2;fill-rule:nonzero;"/><path d="M884.86,276.48l-6,0l0,5.19l6.85,0l0,0.91l-7.93,0l0,-12.74l7.88,0l0,0.91l-6.8,0l0,4.82l6,0l0,0.91Z" style="fill:#f1f1f2;fill-rule:nonzero;"/><path d="M894.9,279l-5.79,0l-1.31,3.58l-1.13,0l4.82,-12.74l1,0l4.82,12.74l-1.12,0l-1.29,-3.58Zm-5.45,-0.91l5.11,0l-2.56,-6.93l-2.55,6.93Z" style="fill:#f1f1f2;fill-rule:nonzero;"/><path d="M902.08,276.26l-1.79,1.74l0,4.56l-1.08,0l0,-12.72l1.08,0l0,6.87l6.52,-6.87l1.36,0l-5.34,5.67l5.75,7.07l-1.31,0l-5.19,-6.32Z" style="fill:#f1f1f2;fill-rule:nonzero;"/><path d="M917.72,279.45c0.027,-0.644 -0.247,-1.265 -0.74,-1.68c-0.826,-0.556 -1.748,-0.953 -2.72,-1.17c-1.024,-0.241 -2,-0.65 -2.89,-1.21c-0.813,-0.543 -1.302,-1.459 -1.302,-2.436c0,-0.939 0.451,-1.823 1.212,-2.374c0.893,-0.638 1.974,-0.958 3.07,-0.91c0.785,-0.017 1.562,0.151 2.27,0.49c0.636,0.296 1.174,0.768 1.55,1.36c0.379,0.597 0.574,1.293 0.56,2l-1.09,0c0.029,-0.797 -0.297,-1.567 -0.89,-2.1c-0.673,-0.554 -1.53,-0.836 -2.4,-0.79c-0.823,-0.042 -1.638,0.186 -2.32,0.65c-0.562,0.384 -0.89,1.03 -0.87,1.71c-0.01,0.621 0.281,1.21 0.78,1.58c0.754,0.515 1.599,0.882 2.49,1.08c0.903,0.23 1.775,0.566 2.6,1c0.537,0.283 0.994,0.695 1.33,1.2c0.303,0.496 0.456,1.069 0.44,1.65c0.025,0.955 -0.425,1.862 -1.2,2.42c-0.929,0.642 -2.042,0.962 -3.17,0.91c-0.849,0.012 -1.69,-0.155 -2.47,-0.49c-0.689,-0.269 -1.284,-0.735 -1.71,-1.34c-0.389,-0.594 -0.591,-1.29 -0.58,-2l1.08,0c-0.034,0.83 0.34,1.626 1,2.13c0.781,0.553 1.725,0.828 2.68,0.78c0.846,0.039 1.683,-0.192 2.39,-0.66c0.592,-0.402 0.933,-1.085 0.9,-1.8Z" style="fill:#f1f1f2;fill-rule:nonzero;"/></g></svg>