<?xml version="1.0" encoding="UTF-8" standalone="no"?><!DOCTYPE svg PUBLIC "-//W3C//DTD SVG 1.1//EN" "http://www.w3.org/Graphics/SVG/1.1/DTD/svg11.dtd"><svg width="100%" height="100%" viewBox="0 0 1499 445" version="1.1" xmlns="http://www.w3.org/2000/svg" xmlns:xlink="http://www.w3.org/1999/xlink" xml:space="preserve" xmlns:serif="http://www.serif.com/" style="fill-rule:evenodd;clip-rule:evenodd;stroke-miterlimit:10;"><g id="Layer-2" serif:id="Layer 2"><g><text x="250.617px" y="387.405px" style="font-family:'Lato-LightItalic', 'Lato', sans-serif;font-weight:300;font-style:italic;font-size:70px;fill:#ed1c24;">T</text><text x="288.292px" y="387.405px" style="font-family:'Lato-LightItalic', 'Lato', sans-serif;font-weight:300;font-style:italic;font-size:70px;fill:#ed1c24;">H</text><text x="336.997px" y="387.405px" style="font-family:'Lato-LightItalic', 'Lato', sans-serif;font-weight:300;font-style:italic;font-size:70px;fill:#ed1c24;">E</text><text x="388.527px" y="387.405px" style="font-family:'Lato-BlackItalic', 'Lato', sans-serif;font-weight:900;font-style:italic;font-size:70px;fill:#ed1c24;">N</text><text x="437.207px" y="387.405px" style="font-family:'Lato-BlackItalic', 'Lato', sans-serif;font-weight:900;font-style:italic;font-size:70px;fill:#ed1c24;">E</text><text x="473.492px" y="387.405px" style="font-family:'Lato-BlackItalic', 'Lato', sans-serif;font-weight:900;font-style:italic;font-size:70px;fill:#ed1c24;">X</text><text x="519.842px" y="387.405px" style="font-family:'Lato-BlackItalic', 'Lato', sans-serif;font-weight:900;font-style:italic;font-size:70px;fill:#ed1c24;">T</text><text x="571.997px" y="387.405px" style="font-family:'Lato-BlackItalic', 'Lato', sans-serif;font-weight:900;font-style:italic;font-size:70px;fill:#ed1c24;">G</text><text x="617.697px" y="387.405px" style="font-family:'Lato-BlackItalic', 'Lato', sans-serif;font-weight:900;font-style:italic;font-size:70px;fill:#ed1c24;">E</text><text x="653.982px" y="387.405px" style="font-family:'Lato-BlackItalic', 'Lato', sans-serif;font-weight:900;font-style:italic;font-size:70px;fill:#ed1c24;">N</text><text x="702.662px" y="387.405px" style="font-family:'Lato-BlackItalic', 'Lato', sans-serif;font-weight:900;font-style:italic;font-size:70px;fill:#ed1c24;">E</text><text x="738.947px" y="387.405px" style="font-family:'Lato-BlackItalic', 'Lato', sans-serif;font-weight:900;font-style:italic;font-size:70px;fill:#ed1c24;">R</text><text x="781.927px" y="387.405px" style="font-family:'Lato-BlackItalic', 'Lato', sans-serif;font-weight:900;font-style:italic;font-size:70px;fill:#ed1c24;">A</text><text x="822.722px" y="387.405px" style="font-family:'Lato-BlackItalic', 'Lato', sans-serif;font-weight:900;font-style:italic;font-size:70px;fill:#ed1c24;">T</text><text x="861.362px" y="387.405px" style="font-family:'Lato-BlackItalic', 'Lato', sans-serif;font-weight:900;font-style:italic;font-size:70px;fill:#ed1c24;">I</text><text x="882.117px" y="387.405px" style="font-family:'Lato-BlackItalic', 'Lato', sans-serif;font-weight:900;font-style:italic;font-size:70px;fill:#ed1c24;">O<tspan x="933.317px " y="387.405px ">N</tspan></text><text x="995.547px" y="387.405px" style="font-family:'Lato-LightItalic', 'Lato', sans-serif;font-weight:300;font-style:italic;font-size:70px;fill:#ed1c24;">I</text><text x="1014.82px" y="387.405px" style="font-family:'Lato-LightItalic', 'Lato', sans-serif;font-weight:300;font-style:italic;font-size:70px;fill:#ed1c24;">S</text><text x="1061.97px" y="387.405px" style="font-family:'Lato-LightItalic', 'Lato', sans-serif;font-weight:300;font-style:italic;font-size:70px;fill:#ed1c24;">H</text><text x="1110.73px" y="387.405px" style="font-family:'Lato-LightItalic', 'Lato', sans-serif;font-weight:300;font-style:italic;font-size:70px;fill:#ed1c24;">E</text><text x="1148.76px" y="387.405px" style="font-family:'Lato-LightItalic', 'Lato', sans-serif;font-weight:300;font-style:italic;font-size:70px;fill:#ed1c24;">R</text><text x="1189.39px" y="387.405px" style="font-family:'Lato-LightItalic', 'Lato', sans-serif;font-weight:300;font-style:italic;font-size:70px;fill:#ed1c24;">E</text><text x="1227.42px" y="387.405px" style="font-family:'Lato-LightItalic', 'Lato', sans-serif;font-weight:300;font-style:italic;font-size:70px;fill:#ed1c24;">!</text></g><path d="M101.5,444.939l1296,0" style="fill:none;stroke:#ccc;stroke-width:0.5px;"/><path d="M101.668,91.439l545,0" style="fill:none;stroke:#ccc;stroke-width:0.5px;"/><path d="M881.668,91.439l516,0" style="fill:none;stroke:#ccc;stroke-width:0.5px;"/><path d="M580.428,234.815c0,0.549 0.32,1.376 0.964,2.475c0.64,1.102 1.535,2.158 2.682,3.165c1.146,1.012 2.522,1.907 4.128,2.683c1.605,0.783 3.372,1.171 5.298,1.171c3.302,0 6.055,-0.757 8.256,-2.27c2.202,-1.514 3.944,-3.578 5.23,-6.192c1.283,-2.616 2.177,-5.62 2.682,-9.013c0.504,-3.393 0.758,-6.971 0.758,-10.734c0,-3.21 -0.186,-6.213 -0.551,-9.013c-0.368,-2.797 -1.032,-5.251 -1.995,-7.36c-0.964,-2.109 -2.318,-3.784 -4.06,-5.025c-1.743,-1.237 -4.037,-1.856 -6.88,-1.856c-2.386,0 -4.588,0.46 -6.604,1.376c-2.019,0.916 -3.763,2.018 -5.229,3.302c-1.469,1.287 -2.615,2.707 -3.441,4.267c-0.825,1.559 -1.238,2.935 -1.238,4.128l0,28.896Zm-12.935,-56.005c0,-3.943 -0.046,-7.108 -0.138,-9.494c-0.091,-2.386 -0.435,-4.197 -1.031,-5.435c-0.598,-1.239 -1.538,-2.087 -2.821,-2.546c-1.286,-0.458 -3.12,-0.826 -5.504,-1.101c-0.46,0 -0.805,-0.229 -1.032,-0.689c-0.23,-0.458 -0.367,-0.916 -0.413,-1.376c-0.047,-0.458 0.046,-0.916 0.275,-1.375c0.228,-0.458 0.62,-0.689 1.17,-0.689c2.659,-0.183 5.663,-0.458 9.013,-0.825c3.348,-0.364 6.719,-1.053 10.113,-2.065c1.284,-0.364 2.133,-0.296 2.546,0.208c0.413,0.505 0.665,1.031 0.757,1.581l0,39.493c0,0.185 0.045,0.276 0.138,0.276c0.182,0 0.32,-0.091 0.412,-0.276c1.742,-2.661 4.242,-5.045 7.5,-7.156c3.255,-2.109 7.269,-3.165 12.04,-3.165c3.943,0 7.43,0.849 10.458,2.545c3.027,1.699 5.573,3.945 7.637,6.744c2.063,2.799 3.623,6.033 4.678,9.702c1.053,3.668 1.583,7.476 1.583,11.419c0,6.055 -0.942,11.308 -2.821,15.757c-1.881,4.45 -4.428,8.118 -7.637,11.008c-3.212,2.89 -6.928,5.045 -11.146,6.466c-4.221,1.422 -8.668,2.135 -13.347,2.135c-3.212,0 -6.652,-0.208 -10.321,-0.622c-3.67,-0.41 -7.705,-1.398 -12.109,-2.956l0,-67.564Z" style="fill:#fff;fill-rule:nonzero;"/><path d="M670.283,208.67c1.283,0 2.016,-0.46 2.201,-1.376c0.183,-0.916 0.275,-2.019 0.275,-3.304c0,-1.925 -0.298,-3.783 -0.894,-5.573c-0.598,-1.788 -1.445,-3.37 -2.545,-4.746c-1.101,-1.377 -2.432,-2.478 -3.991,-3.303c-1.561,-0.826 -3.35,-1.24 -5.366,-1.24c-2.477,0 -4.61,0.439 -6.399,1.31c-1.789,0.871 -3.302,2.018 -4.541,3.44c-1.238,1.422 -2.18,3.095 -2.82,5.021c-0.643,1.926 -1.102,3.946 -1.376,6.054c-0.186,1.102 -0.254,1.997 -0.207,2.684c0.045,0.689 0.251,1.033 0.619,1.033l25.044,0Zm-25.182,4.816c-0.46,0 -0.711,0.162 -0.757,0.48c-0.047,0.325 -0.068,0.713 -0.068,1.171c0,4.77 0.526,8.806 1.583,12.11c1.053,3.3 2.521,5.984 4.403,8.048c1.879,2.064 4.127,3.557 6.741,4.473c2.616,0.917 5.436,1.375 8.464,1.375c3.117,0 6.144,-0.252 9.081,-0.757c2.935,-0.502 5.457,-1.627 7.568,-3.37c0.459,-0.366 0.94,-0.503 1.446,-0.415c0.502,0.095 0.915,0.323 1.238,0.689c0.32,0.368 0.527,0.782 0.62,1.238c0.09,0.46 0,0.875 -0.276,1.24c-2.937,3.852 -6.24,6.514 -9.908,7.981c-3.67,1.466 -8.211,2.203 -13.622,2.203c-5.505,0 -10.251,-0.827 -14.242,-2.478c-3.991,-1.651 -7.293,-3.967 -9.908,-6.95c-2.613,-2.979 -4.54,-6.466 -5.779,-10.458c-1.238,-3.99 -1.858,-8.324 -1.858,-13.003c0,-4.493 0.758,-8.759 2.271,-12.797c1.514,-4.035 3.646,-7.52 6.399,-10.458c2.752,-2.934 6.007,-5.273 9.77,-7.017c3.759,-1.742 7.933,-2.615 12.521,-2.615c3.853,0 7.362,0.666 10.527,1.996c3.165,1.331 5.848,3.164 8.049,5.503c2.202,2.34 3.922,5.139 5.16,8.395c1.24,3.257 1.858,6.765 1.858,10.526c0,1.925 -0.688,2.89 -2.064,2.89l-39.217,0Z" style="fill:#fff;fill-rule:nonzero;"/><path d="M727.525,220.09c0,-1.008 -0.048,-1.625 -0.138,-1.857c-0.092,-0.229 -0.322,-0.344 -0.688,-0.344c-7.523,0.642 -13.095,2.225 -16.718,4.748c-3.625,2.524 -5.436,5.757 -5.436,9.7c0,2.752 0.688,5.071 2.064,6.951c1.376,1.88 3.668,2.818 6.88,2.818c2.11,0 4.335,-0.41 6.674,-1.237c2.34,-0.827 4.425,-2.017 6.261,-3.579c0.734,-0.732 1.101,-1.465 1.101,-2.201l0,-14.999Zm12.934,13.623c0,3.211 0.298,5.459 0.895,6.742c0.596,1.285 1.765,1.928 3.509,1.928c1.008,0 1.834,-0.116 2.476,-0.344c0.642,-0.229 1.559,-0.709 2.753,-1.445c0.275,-0.183 0.571,-0.183 0.894,0c0.321,0.186 0.596,0.435 0.825,0.757c0.229,0.322 0.39,0.688 0.483,1.099c0.09,0.413 0,0.759 -0.276,1.032c-3.578,4.314 -7.798,6.47 -12.659,6.47c-2.662,0 -4.933,-0.713 -6.812,-2.134c-1.881,-1.422 -3.281,-3.097 -4.196,-5.023c-0.186,-0.458 -0.461,-0.503 -0.826,-0.137c-2.387,2.112 -5.16,3.854 -8.325,5.23c-3.165,1.375 -7.134,2.064 -11.903,2.064c-5.228,0 -9.267,-1.398 -12.108,-4.199c-2.846,-2.797 -4.266,-6.764 -4.266,-11.903c0,-6.602 3.072,-11.672 9.219,-15.202c6.145,-3.533 15.089,-5.3 26.833,-5.3c0.183,0 0.32,-0.227 0.412,-0.687c0.09,-0.458 0.138,-1.516 0.138,-3.165l0,-3.716c0,-2.292 -0.185,-4.45 -0.55,-6.467c-0.368,-2.016 -0.987,-3.784 -1.858,-5.298c-0.873,-1.512 -2.088,-2.705 -3.646,-3.577c-1.562,-0.87 -3.488,-1.309 -5.78,-1.309c-3.395,0 -6.147,0.668 -8.256,1.998c-2.111,1.33 -3.165,3.05 -3.165,5.16c0,1.01 0.32,1.994 0.963,2.956c0.641,0.964 0.964,1.95 0.964,2.959c0,1.286 -0.643,2.524 -1.927,3.717c-1.286,1.192 -2.845,1.786 -4.679,1.786c-2.476,0 -4.243,-0.663 -5.297,-1.993c-1.056,-1.33 -1.583,-2.958 -1.583,-4.886c0,-2.292 0.641,-4.473 1.927,-6.537c1.283,-2.063 3.027,-3.828 5.229,-5.297c2.202,-1.466 4.769,-2.635 7.706,-3.508c2.935,-0.872 6.007,-1.308 9.219,-1.308c7.338,0 13.118,1.699 17.338,5.092c4.218,3.395 6.329,9.037 6.329,16.924l0,27.521Z" style="fill:#fff;fill-rule:nonzero;"/><path d="M764.677,214.862c0,3.487 0.413,6.811 1.238,9.978c0.826,3.162 2.086,5.962 3.785,8.391c1.696,2.434 3.874,4.358 6.536,5.778c2.659,1.426 5.87,2.135 9.632,2.135c3.209,0 6.351,-0.253 9.426,-0.757c3.073,-0.503 5.662,-1.672 7.774,-3.507c0.366,-0.366 0.779,-0.484 1.237,-0.345c0.459,0.137 0.871,0.367 1.24,0.688c0.365,0.323 0.619,0.711 0.757,1.169c0.136,0.46 0.068,0.874 -0.207,1.24c-3.027,4.036 -6.559,6.764 -10.594,8.186c-4.039,1.421 -8.807,2.134 -14.311,2.134c-3.67,0 -7.341,-0.551 -11.009,-1.654c-3.67,-1.099 -6.997,-2.935 -9.976,-5.503c-2.982,-2.567 -5.39,-5.985 -7.225,-10.251c-1.835,-4.264 -2.751,-9.564 -2.751,-15.894c0,-4.493 0.757,-8.737 2.27,-12.729c1.514,-3.989 3.716,-7.429 6.606,-10.319c2.889,-2.888 6.443,-5.182 10.664,-6.881c4.218,-1.695 9.081,-2.545 14.585,-2.545c2.659,0 5.25,0.323 7.774,0.964c2.523,0.643 4.77,1.581 6.744,2.82c1.971,1.239 3.553,2.777 4.746,4.61c1.192,1.836 1.788,3.899 1.788,6.191c0,1.653 -0.549,3.213 -1.65,4.68c-1.101,1.468 -2.844,2.201 -5.23,2.201c-1.924,0 -3.508,-0.503 -4.746,-1.512c-1.239,-1.009 -1.858,-2.478 -1.858,-4.403c0,-1.285 0.344,-2.342 1.033,-3.167c0.688,-0.825 1.03,-1.605 1.03,-2.338c0,-1.652 -1.099,-2.912 -3.3,-3.784c-2.203,-0.87 -4.634,-1.309 -7.295,-1.309c-3.487,0 -6.397,0.736 -8.737,2.203c-2.339,1.47 -4.265,3.418 -5.779,5.848c-1.513,2.431 -2.593,5.182 -3.233,8.257c-0.644,3.072 -0.964,6.214 -0.964,9.425" style="fill:#fff;fill-rule:nonzero;"/><path d="M856.456,216.788c0,-3.485 -0.229,-6.88 -0.688,-10.181c-0.459,-3.303 -1.285,-6.238 -2.476,-8.808c-1.193,-2.567 -2.845,-4.63 -4.954,-6.192c-2.111,-1.559 -4.816,-2.34 -8.118,-2.34c-3.67,0 -6.652,0.781 -8.944,2.34c-2.295,1.562 -4.107,3.647 -5.436,6.26c-1.33,2.613 -2.249,5.573 -2.751,8.876c-0.507,3.303 -0.758,6.743 -0.758,10.32c0,3.121 0.229,6.33 0.688,9.632c0.458,3.304 1.329,6.284 2.615,8.944c1.284,2.661 3.048,4.864 5.297,6.606c2.248,1.743 5.114,2.613 8.6,2.613c3.579,0 6.468,-0.824 8.669,-2.475c2.202,-1.653 3.923,-3.806 5.16,-6.469c1.239,-2.658 2.064,-5.662 2.479,-9.012c0.412,-3.348 0.617,-6.718 0.617,-10.114m14.448,-1.514c0,5.598 -0.779,10.55 -2.338,14.862c-1.562,4.313 -3.784,7.937 -6.674,10.871c-2.89,2.936 -6.353,5.159 -10.389,6.672c-4.037,1.514 -8.531,2.273 -13.485,2.273c-4.313,0 -8.303,-0.713 -11.971,-2.135c-3.67,-1.422 -6.835,-3.53 -9.495,-6.33c-2.661,-2.796 -4.77,-6.328 -6.33,-10.594c-1.561,-4.268 -2.339,-9.289 -2.339,-15.069c0,-4.679 0.778,-8.966 2.339,-12.866c1.56,-3.898 3.737,-7.224 6.536,-9.975c2.799,-2.752 6.168,-4.907 10.114,-6.467c3.943,-1.559 8.257,-2.34 12.935,-2.34c4.493,0 8.646,0.689 12.453,2.065c3.806,1.376 7.087,3.37 9.839,5.985c2.753,2.615 4.905,5.847 6.467,9.7c1.559,3.854 2.338,8.304 2.338,13.348" style="fill:#fff;fill-rule:nonzero;"/><path d="M891.271,231.925c0,2.293 0.046,4.22 0.138,5.778c0.089,1.562 0.343,2.844 0.756,3.854c0.413,1.01 1.101,1.788 2.066,2.338c0.962,0.552 2.313,0.963 4.057,1.239c0.55,0.092 0.962,0.345 1.238,0.756c0.275,0.413 0.411,0.895 0.411,1.446c0,0.459 -0.136,0.895 -0.411,1.305c-0.276,0.415 -0.688,0.622 -1.239,0.622c-0.919,0 -2.639,-0.161 -5.159,-0.482c-2.524,-0.321 -5.16,-0.483 -7.913,-0.483c-2.937,0 -5.778,0.162 -8.531,0.483c-2.751,0.321 -5.321,0.482 -7.708,0.482c-0.458,0 -0.824,-0.207 -1.099,-0.622c-0.276,-0.41 -0.413,-0.846 -0.413,-1.305c0,-0.551 0.137,-1.033 0.413,-1.446c0.275,-0.411 0.689,-0.664 1.239,-0.754c2.291,-0.278 4.059,-0.645 5.298,-1.103c1.239,-0.458 2.152,-1.145 2.752,-2.064c0.593,-0.916 0.938,-2.11 1.032,-3.577c0.089,-1.468 0.137,-3.35 0.137,-5.642l0,-17.338c0,-4.495 -0.048,-8.234 -0.137,-11.213c-0.094,-2.981 -0.414,-5.344 -0.965,-7.089c-0.549,-1.74 -1.421,-2.958 -2.613,-3.645c-1.192,-0.689 -2.891,-1.033 -5.091,-1.033c-0.553,0 -0.988,-0.183 -1.307,-0.551c-0.322,-0.367 -0.481,-0.777 -0.481,-1.238c0,-0.549 0.159,-1.009 0.481,-1.376c0.319,-0.365 0.755,-0.549 1.307,-0.549c1.741,0 4.286,-0.278 7.637,-0.827c3.346,-0.55 6.765,-1.329 10.25,-2.34c1.285,-0.365 2.248,-0.112 2.889,0.759c0.643,0.872 0.965,1.857 0.965,2.957l0,5.505c0,0.183 0.068,0.299 0.208,0.343c0.136,0.048 0.249,-0.022 0.344,-0.205c0.638,-1.009 1.534,-2.134 2.682,-3.373c1.144,-1.237 2.52,-2.408 4.127,-3.508c1.606,-1.102 3.416,-2.018 5.435,-2.751c2.018,-0.733 4.268,-1.102 6.743,-1.102c6.88,0 12.268,1.905 16.168,5.71c3.899,3.809 5.849,9.977 5.849,18.507l0,23.532c0,2.476 0.069,4.493 0.205,6.053c0.138,1.561 0.458,2.822 0.963,3.784c0.505,0.964 1.285,1.699 2.341,2.203c1.054,0.504 2.545,0.893 4.472,1.169c0.552,0.092 0.963,0.345 1.239,0.756c0.274,0.413 0.412,0.895 0.412,1.446c0,0.459 -0.138,0.895 -0.412,1.305c-0.276,0.415 -0.687,0.622 -1.239,0.622c-1.193,0 -3.144,-0.161 -5.848,-0.482c-2.707,-0.323 -5.437,-0.483 -8.189,-0.483c-2.935,0 -5.733,0.16 -8.393,0.483c-2.661,0.321 -4.862,0.482 -6.603,0.482c-0.463,0 -0.828,-0.207 -1.103,-0.622c-0.273,-0.41 -0.413,-0.846 -0.413,-1.305c0,-0.551 0.14,-1.033 0.413,-1.446c0.275,-0.411 0.688,-0.664 1.24,-0.756c2.016,-0.276 3.553,-0.687 4.608,-1.239c1.054,-0.55 1.834,-1.307 2.339,-2.27c0.505,-0.962 0.804,-2.155 0.895,-3.578c0.091,-1.42 0.137,-3.187 0.137,-5.297l0,-20.917c0,-2.291 -0.092,-4.583 -0.275,-6.88c-0.184,-2.291 -0.687,-4.355 -1.512,-6.192c-0.825,-1.833 -2.018,-3.347 -3.577,-4.54c-1.561,-1.191 -3.717,-1.789 -6.469,-1.789c-2.752,0 -5.16,0.436 -7.224,1.307c-2.064,0.874 -3.809,2.043 -5.227,3.509c-1.425,1.469 -2.503,3.189 -3.237,5.16c-0.733,1.974 -1.099,4.059 -1.099,6.262l0,23.255Z" style="fill:#fff;fill-rule:nonzero;"/><path d="M726.475,147.842c-28.828,-8.11 -45.685,-38.16 -37.575,-66.988c7.843,-27.882 36.209,-44.563 64.146,-38.291l-4.422,15.72c-19.276,-3.862 -38.636,7.747 -44.046,26.982c-5.677,20.182 6.124,41.221 26.307,46.898c20.183,5.678 41.223,-6.124 46.899,-26.307l15.679,4.41c-8.109,28.828 -38.159,45.684 -66.988,37.576" style="fill:#528093;fill-rule:nonzero;"/><path d="M794.898,103.477l-15.858,-4.46c1.522,-16.597 -8.085,-32.532 -23.774,-38.775l4.423,-15.725c24.308,8.796 38.958,33.644 35.209,58.96" style="fill:#ec1c24;fill-rule:nonzero;"/><path d="M817.258,109.767l-15.765,-4.436c4.711,-28.945 -12.047,-57.532 -39.958,-67.375l4.421,-15.719c36.55,12.324 58.357,49.902 51.302,87.53" style="fill:#b4191e;fill-rule:nonzero;"/><path d="M767.798,15.69l4.413,-15.689c48.793,15.818 77.762,66.124 67.336,116.036l-15.72,-4.423c8.044,-41.247 -15.875,-82.569 -56.029,-95.924" style="fill:#95171a;fill-rule:nonzero;"/><path d="M583.841,278.094l5.109,0l-2.555,-6.937l-2.554,6.937Zm5.45,0.91l-5.782,0l-1.313,3.578l-1.128,0l4.82,-12.737l1.023,0l4.821,12.737l-1.12,0l-1.321,-3.578Z" style="fill:#f1f1f2;fill-rule:nonzero;"/><path d="M594.688,281.672l6.29,0l0,0.91l-7.375,0l0,-12.737l1.085,0l0,11.827Z" style="fill:#f1f1f2;fill-rule:nonzero;"/><path d="M604.145,279.144l0.394,1.977l0.481,-1.89l2.764,-9.386l0.971,0l2.729,9.386l0.472,1.908l0.42,-1.995l2.301,-9.299l1.102,0l-3.263,12.737l-1.032,0l-2.886,-9.964l-0.324,-1.26l-0.316,1.26l-2.957,9.964l-1.031,0l-3.255,-12.737l1.102,0l2.327,9.299Z" style="fill:#f1f1f2;fill-rule:nonzero;"/><path d="M618.902,278.094l5.109,0l-2.555,-6.937l-2.554,6.937Zm5.45,0.91l-5.782,0l-1.313,3.578l-1.128,0l4.82,-12.737l1.023,0l4.821,12.737l-1.12,0l-1.321,-3.578Z" style="fill:#f1f1f2;fill-rule:nonzero;"/><path d="M631.578,276.791l3.893,-6.946l1.242,0l-4.601,7.943l0,4.794l-1.076,0l0,-4.794l-4.593,-7.943l1.277,0l3.858,6.946Z" style="fill:#f1f1f2;fill-rule:nonzero;"/><path d="M645.636,279.45c0,-0.705 -0.248,-1.264 -0.744,-1.675c-0.495,-0.411 -1.402,-0.801 -2.72,-1.172c-1.318,-0.37 -2.281,-0.775 -2.887,-1.212c-0.863,-0.618 -1.295,-1.428 -1.295,-2.432c0,-0.973 0.401,-1.765 1.203,-2.374c0.802,-0.61 1.827,-0.915 3.075,-0.915c0.845,0 1.602,0.164 2.27,0.49c0.668,0.327 1.185,0.782 1.553,1.365c0.367,0.583 0.551,1.233 0.551,1.95l-1.085,0c0,-0.871 -0.297,-1.572 -0.892,-2.102c-0.595,-0.528 -1.394,-0.793 -2.397,-0.793c-0.974,0 -1.75,0.218 -2.327,0.653c-0.577,0.435 -0.866,1.003 -0.866,1.704c0,0.648 0.259,1.177 0.779,1.586c0.519,0.408 1.35,0.769 2.493,1.081c1.143,0.314 2.009,0.638 2.598,0.972c0.589,0.335 1.032,0.736 1.33,1.203c0.297,0.467 0.446,1.018 0.446,1.653c0,1.004 -0.401,1.809 -1.203,2.415c-0.802,0.607 -1.859,0.91 -3.171,0.91c-0.898,0 -1.722,-0.161 -2.471,-0.481c-0.75,-0.321 -1.319,-0.77 -1.706,-1.347c-0.388,-0.578 -0.582,-1.24 -0.582,-1.986l1.076,0c0,0.899 0.335,1.606 1.006,2.126c0.67,0.519 1.563,0.778 2.677,0.778c0.991,0 1.787,-0.219 2.388,-0.656c0.6,-0.437 0.901,-1.017 0.901,-1.741" style="fill:#f1f1f2;fill-rule:nonzero;"/><path d="M656.264,276.257l-1.793,1.767l0,4.558l-1.076,0l0,-12.737l1.076,0l0,6.867l6.526,-6.867l1.355,0l-5.336,5.668l5.748,7.069l-1.313,0l-5.187,-6.325Z" style="fill:#f1f1f2;fill-rule:nonzero;"/><path d="M674.18,282.582l-1.076,0l-7.322,-10.9l0,10.9l-1.085,0l0,-12.737l1.085,0l7.331,10.909l0,-10.909l1.067,0l0,12.737Z" style="fill:#f1f1f2;fill-rule:nonzero;"/><path d="M685.753,275.522c0,-1.534 -0.347,-2.735 -1.041,-3.604c-0.694,-0.869 -1.645,-1.303 -2.852,-1.303c-1.184,0 -2.127,0.435 -2.83,1.307c-0.703,0.872 -1.054,2.09 -1.054,3.653l0,1.329c0,1.511 0.35,2.708 1.05,3.591c0.7,0.884 1.65,1.325 2.852,1.325c1.218,0 2.169,-0.435 2.851,-1.308c0.683,-0.871 1.024,-2.086 1.024,-3.643l0,-1.347Zm1.076,1.382c0,1.173 -0.203,2.202 -0.608,3.088c-0.406,0.887 -0.984,1.57 -1.736,2.047c-0.753,0.479 -1.622,0.717 -2.607,0.717c-1.487,0 -2.689,-0.531 -3.604,-1.596c-0.916,-1.064 -1.374,-2.501 -1.374,-4.308l0,-1.312c0,-1.161 0.206,-2.188 0.617,-3.083c0.411,-0.896 0.993,-1.585 1.745,-2.065c0.752,-0.482 1.618,-0.722 2.598,-0.722c0.98,0 1.844,0.236 2.594,0.708c0.749,0.473 1.328,1.141 1.736,2.003c0.408,0.864 0.621,1.864 0.639,3.001l0,1.522Z" style="fill:#f1f1f2;fill-rule:nonzero;"/><path d="M691.894,279.144l0.394,1.977l0.481,-1.89l2.764,-9.386l0.971,0l2.729,9.386l0.473,1.908l0.42,-1.995l2.3,-9.299l1.103,0l-3.263,12.737l-1.033,0l-2.886,-9.964l-0.324,-1.26l-0.315,1.26l-2.957,9.964l-1.032,0l-3.254,-12.737l1.102,0l2.327,9.299Z" style="fill:#f1f1f2;fill-rule:nonzero;"/><rect x="710.195" y="269.845" width="1.076" height="12.737" style="fill:#f1f1f2;"/><path d="M721.742,276.625l-5.94,0l0,5.957l-1.076,0l0,-12.737l7.891,0l0,0.91l-6.815,0l0,4.96l5.94,0l0,0.91Z" style="fill:#f1f1f2;fill-rule:nonzero;"/><path d="M732.895,276.791l3.893,-6.946l1.242,0l-4.601,7.943l0,4.794l-1.076,0l0,-4.794l-4.593,-7.943l1.277,0l3.858,6.946Z" style="fill:#f1f1f2;fill-rule:nonzero;"/><path d="M747.968,275.522c0,-1.534 -0.347,-2.735 -1.041,-3.604c-0.694,-0.869 -1.645,-1.303 -2.852,-1.303c-1.184,0 -2.127,0.435 -2.83,1.307c-0.703,0.872 -1.054,2.09 -1.054,3.653l0,1.329c0,1.511 0.35,2.708 1.05,3.591c0.7,0.884 1.65,1.325 2.852,1.325c1.218,0 2.169,-0.435 2.852,-1.308c0.682,-0.871 1.023,-2.086 1.023,-3.643l0,-1.347Zm1.076,1.382c0,1.173 -0.203,2.202 -0.608,3.088c-0.406,0.887 -0.984,1.57 -1.736,2.047c-0.753,0.479 -1.622,0.717 -2.607,0.717c-1.487,0 -2.689,-0.531 -3.604,-1.596c-0.916,-1.064 -1.374,-2.501 -1.374,-4.308l0,-1.312c0,-1.161 0.206,-2.188 0.617,-3.083c0.411,-0.896 0.993,-1.585 1.745,-2.065c0.752,-0.482 1.618,-0.722 2.598,-0.722c0.98,0 1.844,0.236 2.594,0.708c0.749,0.473 1.328,1.141 1.736,2.003c0.408,0.864 0.621,1.864 0.639,3.001l0,1.522Z" style="fill:#f1f1f2;fill-rule:nonzero;"/><path d="M760.53,269.845l0,8.695c-0.005,0.858 -0.196,1.604 -0.569,2.24c-0.373,0.636 -0.899,1.124 -1.579,1.464c-0.679,0.343 -1.459,0.513 -2.34,0.513c-1.341,0 -2.416,-0.366 -3.224,-1.098c-0.807,-0.731 -1.225,-1.745 -1.255,-3.04l0,-8.774l1.068,0l0,8.617c0,1.072 0.306,1.906 0.918,2.498c0.613,0.591 1.444,0.887 2.493,0.887c1.05,0 1.88,-0.297 2.49,-0.892c0.609,-0.595 0.913,-1.423 0.913,-2.485l0,-8.625l1.085,0Z" style="fill:#f1f1f2;fill-rule:nonzero;"/><path d="M764.589,276.362l3.298,0c0.904,0 1.63,-0.257 2.178,-0.771c0.548,-0.514 0.822,-1.18 0.822,-1.997c0,-0.9 -0.285,-1.598 -0.857,-2.095c-0.572,-0.496 -1.373,-0.744 -2.406,-0.744l-3.035,0l0,5.607Zm3.7,0.91l-3.7,0l0,5.31l-1.085,0l0,-12.737l4.138,0c1.359,0 2.42,0.329 3.184,0.988c0.764,0.658 1.146,1.577 1.146,2.761c0,0.815 -0.239,1.535 -0.717,2.157c-0.478,0.624 -1.12,1.055 -1.925,1.294l3.185,5.423l0,0.114l-1.146,0l-3.08,-5.31Z" style="fill:#f1f1f2;fill-rule:nonzero;"/><path d="M788.742,282.582l-1.076,0l-7.322,-10.9l0,10.9l-1.085,0l0,-12.737l1.085,0l7.331,10.909l0,-10.909l1.067,0l0,12.737Z" style="fill:#f1f1f2;fill-rule:nonzero;"/><path d="M799.012,276.476l-5.957,0l0,5.196l6.849,0l0,0.91l-7.925,0l0,-12.737l7.882,0l0,0.91l-6.806,0l0,4.811l5.957,0l0,0.91Z" style="fill:#f1f1f2;fill-rule:nonzero;"/><path d="M810.987,270.754l-4.365,0l0,11.827l-1.076,0l0,-11.827l-4.357,0l0,-0.91l9.798,0l0,0.91Z" style="fill:#f1f1f2;fill-rule:nonzero;"/><path d="M815.528,279.144l0.394,1.977l0.481,-1.89l2.764,-9.386l0.971,0l2.729,9.386l0.473,1.908l0.42,-1.995l2.3,-9.299l1.103,0l-3.263,12.737l-1.033,0l-2.886,-9.964l-0.324,-1.26l-0.315,1.26l-2.957,9.964l-1.032,0l-3.254,-12.737l1.102,0l2.327,9.299Z" style="fill:#f1f1f2;fill-rule:nonzero;"/><path d="M837.572,275.522c0,-1.534 -0.347,-2.735 -1.041,-3.604c-0.694,-0.869 -1.645,-1.303 -2.852,-1.303c-1.184,0 -2.127,0.435 -2.829,1.307c-0.703,0.872 -1.055,2.09 -1.055,3.653l0,1.329c0,1.511 0.35,2.708 1.05,3.591c0.7,0.884 1.65,1.325 2.852,1.325c1.219,0 2.169,-0.435 2.852,-1.308c0.682,-0.871 1.023,-2.086 1.023,-3.643l0,-1.347Zm1.076,1.382c0,1.173 -0.203,2.202 -0.608,3.088c-0.405,0.887 -0.984,1.57 -1.736,2.047c-0.753,0.479 -1.622,0.717 -2.607,0.717c-1.487,0 -2.689,-0.531 -3.604,-1.596c-0.916,-1.064 -1.374,-2.501 -1.374,-4.308l0,-1.312c0,-1.161 0.206,-2.188 0.617,-3.083c0.411,-0.896 0.993,-1.585 1.745,-2.065c0.752,-0.482 1.618,-0.722 2.598,-0.722c0.98,0 1.844,0.236 2.594,0.708c0.75,0.473 1.328,1.141 1.736,2.003c0.408,0.864 0.622,1.864 0.639,3.001l0,1.522Z" style="fill:#f1f1f2;fill-rule:nonzero;"/><path d="M842.419,276.362l3.298,0c0.904,0 1.63,-0.257 2.178,-0.771c0.548,-0.514 0.822,-1.18 0.822,-1.997c0,-0.9 -0.285,-1.598 -0.857,-2.095c-0.572,-0.496 -1.374,-0.744 -2.407,-0.744l-3.034,0l0,5.607Zm3.7,0.91l-3.701,0l0,5.31l-1.085,0l0,-12.737l4.139,0c1.359,0 2.419,0.329 3.183,0.988c0.764,0.658 1.147,1.577 1.147,2.761c0,0.815 -0.24,1.535 -0.717,2.157c-0.479,0.624 -1.12,1.055 -1.926,1.294l3.186,5.423l0,0.114l-1.147,0l-3.079,-5.31Z" style="fill:#f1f1f2;fill-rule:nonzero;"/><path d="M855.602,276.257l-1.793,1.767l0,4.558l-1.076,0l0,-12.737l1.076,0l0,6.867l6.526,-6.867l1.355,0l-5.336,5.668l5.748,7.069l-1.313,0l-5.187,-6.325Z" style="fill:#f1f1f2;fill-rule:nonzero;"/><path d="M869.476,281.672l6.29,0l0,0.91l-7.375,0l0,-12.737l1.085,0l0,11.827Z" style="fill:#f1f1f2;fill-rule:nonzero;"/><path d="M884.863,276.476l-5.957,0l0,5.196l6.849,0l0,0.91l-7.925,0l0,-12.737l7.882,0l0,0.91l-6.806,0l0,4.811l5.957,0l0,0.91Z" style="fill:#f1f1f2;fill-rule:nonzero;"/><path d="M889.447,278.094l5.109,0l-2.555,-6.937l-2.554,6.937Zm5.45,0.91l-5.782,0l-1.313,3.578l-1.128,0l4.82,-12.737l1.023,0l4.821,12.737l-1.12,0l-1.321,-3.578Z" style="fill:#f1f1f2;fill-rule:nonzero;"/><path d="M902.079,276.257l-1.793,1.767l0,4.558l-1.076,0l0,-12.737l1.076,0l0,6.867l6.526,-6.867l1.356,0l-5.337,5.668l5.748,7.069l-1.313,0l-5.187,-6.325Z" style="fill:#f1f1f2;fill-rule:nonzero;"/><path d="M917.72,279.45c0,-0.705 -0.248,-1.264 -0.744,-1.675c-0.495,-0.411 -1.402,-0.801 -2.72,-1.172c-1.318,-0.37 -2.28,-0.775 -2.887,-1.212c-0.863,-0.618 -1.295,-1.428 -1.295,-2.432c0,-0.973 0.401,-1.765 1.203,-2.374c0.802,-0.61 1.827,-0.915 3.075,-0.915c0.845,0 1.602,0.164 2.27,0.49c0.668,0.327 1.185,0.782 1.553,1.365c0.367,0.583 0.551,1.233 0.551,1.95l-1.085,0c0,-0.871 -0.297,-1.572 -0.892,-2.102c-0.595,-0.528 -1.394,-0.793 -2.397,-0.793c-0.974,0 -1.749,0.218 -2.327,0.653c-0.577,0.435 -0.866,1.003 -0.866,1.704c0,0.648 0.259,1.177 0.779,1.586c0.519,0.408 1.35,0.769 2.493,1.081c1.143,0.314 2.009,0.638 2.598,0.972c0.589,0.335 1.032,0.736 1.329,1.203c0.298,0.467 0.447,1.018 0.447,1.653c0,1.004 -0.401,1.809 -1.203,2.415c-0.802,0.607 -1.859,0.91 -3.171,0.91c-0.898,0 -1.722,-0.161 -2.472,-0.481c-0.749,-0.321 -1.318,-0.77 -1.705,-1.347c-0.388,-0.578 -0.582,-1.24 -0.582,-1.986l1.076,0c0,0.899 0.335,1.606 1.006,2.126c0.67,0.519 1.563,0.778 2.677,0.778c0.991,0 1.787,-0.219 2.388,-0.656c0.6,-0.437 0.901,-1.017 0.901,-1.741" style="fill:#f1f1f2;fill-rule:nonzero;"/></g></svg>