<?xml version="1.0" encoding="UTF-8" standalone="no"?>
<!DOCTYPE svg PUBLIC "-//W3C//DTD SVG 1.1//EN" "http://www.w3.org/Graphics/SVG/1.1/DTD/svg11.dtd">
<svg width="100%" height="100%" viewBox="0 0 691 586" version="1.1" xmlns="http://www.w3.org/2000/svg" xmlns:xlink="http://www.w3.org/1999/xlink" xml:space="preserve" style="fill-rule:evenodd;clip-rule:evenodd;">
    <g transform="matrix(1,0,0,1,-10.1492,-674.058)">
        <g id="flow" transform="matrix(1.07945,0,0,0.861876,10.1492,674.058)">
            <rect x="0" y="0" width="640" height="679" style="fill:none;"/>
            <g transform="matrix(0.926394,0,0,1.16026,18.9102,-26.3768)">
                <g id="b2RLbOY1gH" transform="matrix(1,0,0,1,-2,12)">
                    <path d="M374.94,238.93C393.72,238.93 408.95,254.15 408.95,272.93C408.95,290.16 408.95,310.82 408.95,328.79C408.95,345.51 395.39,359.07 378.67,359.07C358.13,359.07 326.81,359.07 306.28,359.07C289.55,359.07 276,345.51 276,328.79C276,310.82 276,287.18 276,269.21C276,252.48 289.55,238.93 306.28,238.93C326.81,238.93 355.16,238.93 374.94,238.93Z" style="fill:rgb(25,25,25);fill-opacity:0;fill-rule:nonzero;stroke:rgb(51,51,51);stroke-width:6px;"/>
                </g>
                <g id="b2RLbOY1gH1" transform="matrix(1,0,0,1,-174.07,181.49)">
                    <path d="M374.94,238.93C393.72,238.93 408.95,254.15 408.95,272.93C408.95,290.16 408.95,310.82 408.95,328.79C408.95,345.51 395.39,359.07 378.67,359.07C358.13,359.07 326.81,359.07 306.28,359.07C289.55,359.07 276,345.51 276,328.79C276,310.82 276,287.18 276,269.21C276,252.48 289.55,238.93 306.28,238.93C326.81,238.93 355.16,238.93 374.94,238.93Z" style="fill:rgb(25,25,25);fill-opacity:0;fill-rule:nonzero;stroke:rgb(51,51,51);stroke-width:6px;"/>
                </g>
                <g id="signal" transform="matrix(1,0,0,1,6.66802,0)">
                    <g id="a9y8nt61AR" transform="matrix(1,0,0,1,-2,12)">
                        <path d="M248.66,411.56C249.06,405.35 246.88,399.7 242.12,394.62C237.37,389.53 230.93,386.8 222.81,386.41" style="fill-opacity:0;fill-rule:nonzero;stroke:rgb(21,21,255);stroke-width:3px;"/>
                    </g>
                    <g id="aOzkSv39b" transform="matrix(1,0,0,1,-2,12)">
                        <path d="M266.38,411.56C266.79,400.27 263.15,390.54 255.45,382.37C247.75,374.19 237.48,369.95 224.64,369.65" style="fill-opacity:0;fill-rule:nonzero;stroke:rgb(21,21,255);stroke-width:3px;"/>
                    </g>
                    <g id="f2PRba2WIP" transform="matrix(1,0,0,1,-2,12)">
                        <path d="M285.58,410.49C284.84,393.42 279.85,379.8 270.63,369.65C261.4,359.49 246.74,353.69 226.65,352.24" style="fill-opacity:0;fill-rule:nonzero;stroke:rgb(21,21,255);stroke-width:3px;"/>
                    </g>
                </g>
                <g transform="matrix(1,0,0,1,148.117,511.297)">
                    <g id="B">
                        <text id="B1" x="0px" y="0px" style="font-family:'Impact', sans-serif;font-stretch:condensed;font-size:80px;fill:rgb(51,51,51);">B</text>
                    </g>
                </g>
                <g id="a7Ffg2HSa" transform="matrix(1,0,0,1,-2,12)">
                    <path d="M472.56,194.95L476.65,177.3L459.68,182.53L463.86,186.56L443.71,207.46L411.31,241.07L414.77,244.4L467.32,189.9L472.56,194.95Z" style="fill:rgb(51,51,51);fill-rule:nonzero;stroke:rgb(51,51,51);stroke-width:1px;stroke-linejoin:round;stroke-miterlimit:1.41421;"/>
                </g>
                <g transform="matrix(1,0,0,1,-30.5618,27.92)">
                    <path d="M515.287,145.122C515.313,137.588 515.182,111.786 515.195,104C515.2,101.133 518.867,97.682 523.055,97.588C529.39,97.446 545.195,97.445 551.488,97.543C554.989,97.598 560.168,99.204 561.195,102.116C562.138,104.791 561.837,107.357 561.88,109.992C561.995,117.137 561.799,138.746 561.888,144.984C561.922,147.436 558.592,148.001 558.562,148C557.058,147.967 554.76,146.794 554.762,145C554.768,138.941 554.762,112.8 554.762,112.8L551.662,112.8L551.662,146L551.462,146C551.462,146 551.407,183.419 551.462,192C551.471,193.469 550.179,196.481 546,196.5C541.768,196.52 539.981,193.74 540,192C540.091,183.45 540,146 540,146L536.962,146C536.962,146 537.054,183.715 537,192C536.984,194.404 533.275,196.752 531.202,196.699C528.9,196.641 525.39,194.338 525.365,191.735C525.297,184.629 525.598,145.969 525.598,145.969L525.222,145.974L525.206,112.864L522.278,112.843C522.278,112.843 522.283,139.417 522.215,145.286C522.199,146.663 519.844,148.027 518.69,148C517.535,147.973 515.282,146.789 515.287,145.122Z" style="fill:rgb(51,51,51);"/>
                </g>
                <g transform="matrix(1,0,0,1,318.657,342.32)">
                    <g id="H">
                        <g>
                            <text x="0px" y="0px" style="font-family:'Impact', sans-serif;font-stretch:condensed;font-size:80px;fill:none;">H</text>
                            <text x="0px" y="0px" style="font-family:'Impact', sans-serif;font-stretch:condensed;font-size:80px;fill:rgb(51,51,51);stroke:rgb(51,51,51);stroke-width:1px;stroke-linejoin:round;stroke-miterlimit:1.41421;">H</text>
                        </g>
                    </g>
                </g>
                <g transform="matrix(1,0,0,1,244.642,462.676)">
                    <g id="ping">
                        <text id="Ping" x="0px" y="0px" style="font-family:'Arial-BoldMT', 'Arial', sans-serif;font-weight:700;font-size:33px;fill:rgb(51,51,51);">Ping!</text>
                    </g>
                </g>
                <g transform="matrix(1,0,0,1,419.524,295.032)">
                    <g id="Alert">
                        <g>
                            <text x="0px" y="0px" style="font-family:'Arial-BoldMT', 'Arial', sans-serif;font-weight:700;font-size:33px;fill:none;">Alert!</text>
                            <text x="0px" y="0px" style="font-family:'Arial-BoldMT', 'Arial', sans-serif;font-weight:700;font-size:33px;fill:rgb(50,50,50);">Alert!</text>
                        </g>
                    </g>
                </g>
                <g transform="matrix(1.15789,0,0,1.16667,-118.404,13.2533)">
                    <ellipse cx="540.5" cy="85" rx="9.5" ry="9" style="fill:rgb(51,51,51);stroke:rgb(51,51,51);stroke-width:0.59px;"/>
                </g>
            </g>
        </g>
    </g>
</svg>
