<?xml version="1.0" encoding="UTF-8" standalone="no"?>
<!DOCTYPE svg PUBLIC "-//W3C//DTD SVG 1.1//EN" "http://www.w3.org/Graphics/SVG/1.1/DTD/svg11.dtd">
<svg width="100%" height="100%" viewBox="0 0 691 586" version="1.1" xmlns="http://www.w3.org/2000/svg" xmlns:xlink="http://www.w3.org/1999/xlink" xml:space="preserve" style="fill-rule:evenodd;clip-rule:evenodd;">
    <g transform="matrix(1,0,0,1,-10.1492,0)">
        <g id="flow" transform="matrix(1.07945,0,0,0.861876,10.1492,0)">
            <rect x="0" y="0" width="640" height="679" style="fill:none;"/>
            <g transform="matrix(0.926394,0,0,1.16026,18.9102,-26.3768)">
                <g id="Box" transform="matrix(1.12452,0,0,0.897755,-35.1646,35.3985)">
                    <path d="M603.64,36.92C609.17,36.92 613.64,41.4 613.64,46.92C613.64,156.28 613.64,474.34 613.64,583.7C613.64,589.22 609.17,593.7 603.64,593.7C488.19,593.7 151.81,593.7 36.36,593.7C30.83,593.7 26.36,589.22 26.36,583.7C26.36,474.34 26.36,156.28 26.36,46.92C26.36,41.4 30.83,36.92 36.36,36.92C151.81,36.92 488.19,36.92 603.64,36.92Z" style="fill:white;fill-rule:nonzero;"/>
                    <path d="M603.806,32.388L603.972,32.391L604.137,32.396L604.301,32.403L604.466,32.413L604.63,32.424L604.793,32.438L604.956,32.453L605.118,32.471L605.28,32.49L605.442,32.512L605.603,32.535L605.763,32.561L605.923,32.588L606.082,32.618L606.241,32.649L606.399,32.682L606.556,32.718L606.713,32.755L606.87,32.794L607.026,32.835L607.181,32.878L607.335,32.923L607.488,32.97L607.642,33.019L607.794,33.069L607.946,33.122L608.097,33.176L608.247,33.232L608.397,33.29L608.545,33.35L608.693,33.411L608.841,33.474L608.988,33.54L609.133,33.607L609.278,33.675L609.422,33.746L609.566,33.819L609.708,33.893L609.85,33.969L609.991,34.046L610.131,34.126L610.27,34.207L610.409,34.29L610.546,34.375L610.683,34.461L610.818,34.549L610.953,34.639L611.087,34.73L611.219,34.824L611.351,34.919L611.482,35.016L611.612,35.114L611.741,35.214L611.869,35.316L611.996,35.42L612.122,35.524L612.247,35.632L612.371,35.74L612.493,35.85L612.615,35.962L612.735,36.076L612.854,36.191L612.973,36.308L613.09,36.427L613.206,36.547L613.321,36.669L613.434,36.792L613.546,36.917L613.658,37.045L613.768,37.173L613.876,37.303L613.983,37.435L614.09,37.568L614.195,37.704L614.298,37.84L614.4,37.978L614.501,38.118L614.6,38.26L614.698,38.403L614.794,38.548L614.889,38.694L614.983,38.843L615.075,38.992L615.166,39.143L615.254,39.296L615.342,39.45L615.428,39.606L615.512,39.763L615.594,39.922L615.675,40.083L615.754,40.245L615.832,40.408L615.908,40.574L615.982,40.74L616.054,40.908L616.125,41.078L616.193,41.249L616.259,41.42L616.324,41.594L616.387,41.77L616.448,41.946L616.507,42.124L616.564,42.302L616.619,42.484L616.672,42.666L616.722,42.848L616.771,43.032L616.817,43.218L616.862,43.405L616.904,43.592L616.943,43.781L616.981,43.971L617.016,44.162L617.049,44.354L617.08,44.546L617.108,44.741L617.134,44.936L617.158,45.13L617.179,45.326L617.198,45.523L617.214,45.721L617.228,45.92L617.239,46.12L617.248,46.319L617.254,46.518L617.258,46.719L617.259,46.903L617.259,583.717L617.258,583.901L617.254,584.102L617.248,584.301L617.239,584.501L617.228,584.7L617.214,584.899L617.198,585.096L617.179,585.294L617.158,585.49L617.134,585.684L617.108,585.879L617.08,586.074L617.049,586.266L617.016,586.458L616.981,586.649L616.943,586.839L616.904,587.028L616.862,587.215L616.817,587.402L616.771,587.588L616.722,587.772L616.672,587.954L616.619,588.136L616.564,588.318L616.507,588.497L616.448,588.673L616.387,588.85L616.324,589.026L616.259,589.2L616.193,589.372L616.125,589.542L616.054,589.712L615.982,589.88L615.908,590.046L615.832,590.211L615.755,590.375L615.675,590.537L615.595,590.698L615.512,590.857L615.428,591.014L615.342,591.17L615.254,591.324L615.166,591.477L615.075,591.628L614.983,591.777L614.889,591.926L614.794,592.072L614.698,592.217L614.6,592.36L614.501,592.501L614.4,592.642L614.298,592.78L614.195,592.916L614.09,593.052L613.984,593.185L613.876,593.317L613.768,593.447L613.658,593.575L613.546,593.703L613.434,593.828L613.321,593.951L613.206,594.073L613.09,594.194L612.973,594.312L612.855,594.429L612.735,594.544L612.615,594.658L612.493,594.77L612.371,594.88L612.247,594.988L612.122,595.096L611.996,595.201L611.869,595.304L611.741,595.406L611.612,595.506L611.483,595.604L611.351,595.701L611.219,595.796L611.087,595.89L610.953,595.981L610.818,596.071L610.683,596.159L610.546,596.245L610.408,596.33L610.27,596.413L610.131,596.494L609.991,596.574L609.85,596.651L609.709,596.727L609.566,596.802L609.422,596.874L609.278,596.945L609.133,597.013L608.988,597.08L608.841,597.146L608.693,597.209L608.545,597.27L608.397,597.33L608.247,597.388L608.096,597.444L607.946,597.499L607.794,597.551L607.642,597.601L607.488,597.65L607.334,597.697L607.18,597.742L607.026,597.785L606.87,597.826L606.713,597.865L606.557,597.902L606.399,597.937L606.241,597.971L606.082,598.002L605.923,598.032L605.763,598.059L605.603,598.085L605.441,598.108L605.28,598.13L605.119,598.149L604.956,598.167L604.793,598.183L604.629,598.196L604.466,598.207L604.301,598.217L604.137,598.224L603.972,598.229L603.806,598.232L603.649,598.233L36.351,598.233L36.194,598.232L36.028,598.229L35.863,598.224L35.699,598.217L35.534,598.207L35.371,598.196L35.207,598.183L35.044,598.167L34.881,598.149L34.72,598.13L34.559,598.108L34.397,598.085L34.237,598.059L34.077,598.032L33.918,598.002L33.759,597.971L33.601,597.937L33.443,597.902L33.287,597.865L33.13,597.826L32.974,597.785L32.82,597.742L32.666,597.697L32.512,597.65L32.358,597.601L32.206,597.551L32.054,597.499L31.904,597.444L31.753,597.388L31.603,597.33L31.455,597.27L31.307,597.209L31.159,597.145L31.012,597.08L30.867,597.013L30.722,596.944L30.578,596.874L30.434,596.802L30.291,596.727L30.15,596.651L30.009,596.574L29.869,596.494L29.729,596.413L29.592,596.33L29.454,596.246L29.317,596.159L29.182,596.071L29.047,595.981L28.913,595.89L28.78,595.796L28.649,595.701L28.517,595.604L28.388,595.506L28.259,595.406L28.131,595.304L28.004,595.201L27.878,595.095L27.753,594.988L27.63,594.88L27.507,594.77L27.385,594.658L27.265,594.544L27.145,594.429L27.027,594.312L26.91,594.194L26.794,594.073L26.679,593.951L26.566,593.828L26.454,593.703L26.342,593.576L26.232,593.447L26.124,593.317L26.016,593.185L25.91,593.052L25.805,592.916L25.702,592.78L25.6,592.642L25.499,592.501L25.4,592.36L25.302,592.217L25.206,592.072L25.111,591.926L25.017,591.778L24.925,591.628L24.834,591.477L24.745,591.324L24.658,591.17L24.572,591.014L24.488,590.857L24.405,590.698L24.325,590.537L24.245,590.375L24.168,590.212L24.092,590.047L24.018,589.88L23.946,589.712L23.876,589.542L23.807,589.372L23.74,589.199L23.676,589.025L23.613,588.85L23.552,588.674L23.493,588.496L23.436,588.317L23.381,588.136L23.328,587.955L23.278,587.771L23.229,587.587L23.183,587.402L23.138,587.215L23.096,587.028L23.057,586.839L23.019,586.649L22.984,586.458L22.951,586.266L22.92,586.074L22.892,585.88L22.866,585.685L22.842,585.49L22.821,585.293L22.802,585.096L22.786,584.899L22.772,584.7L22.761,584.501L22.752,584.302L22.746,584.102L22.742,583.901L22.741,583.718L22.741,46.902L22.742,46.719L22.746,46.518L22.752,46.318L22.761,46.119L22.772,45.92L22.786,45.721L22.802,45.524L22.821,45.327L22.842,45.13L22.866,44.935L22.892,44.74L22.92,44.546L22.951,44.354L22.984,44.162L23.019,43.971L23.057,43.781L23.096,43.592L23.138,43.405L23.183,43.218L23.229,43.033L23.278,42.848L23.328,42.665L23.381,42.484L23.436,42.303L23.493,42.124L23.552,41.946L23.613,41.77L23.676,41.595L23.74,41.421L23.807,41.248L23.876,41.078L23.946,40.908L24.018,40.74L24.092,40.574L24.168,40.408L24.245,40.245L24.325,40.083L24.406,39.922L24.488,39.763L24.572,39.606L24.658,39.45L24.746,39.296L24.835,39.143L24.925,38.992L25.017,38.842L25.111,38.694L25.206,38.548L25.302,38.403L25.4,38.26L25.499,38.118L25.6,37.978L25.702,37.84L25.806,37.703L25.91,37.568L26.016,37.435L26.124,37.303L26.232,37.173L26.342,37.044L26.453,36.918L26.566,36.792L26.679,36.669L26.794,36.547L26.91,36.427L27.027,36.308L27.145,36.191L27.265,36.076L27.385,35.962L27.507,35.85L27.63,35.74L27.753,35.632L27.878,35.525L28.004,35.419L28.131,35.316L28.259,35.214L28.388,35.114L28.518,35.016L28.649,34.919L28.78,34.824L28.913,34.731L29.047,34.639L29.182,34.549L29.317,34.461L29.454,34.374L29.591,34.29L29.73,34.207L29.869,34.126L30.009,34.046L30.15,33.969L30.292,33.893L30.434,33.819L30.578,33.746L30.722,33.676L30.867,33.607L31.013,33.54L31.159,33.475L31.306,33.411L31.455,33.35L31.603,33.29L31.753,33.232L31.903,33.176L32.054,33.122L32.206,33.069L32.358,33.019L32.511,32.97L32.665,32.923L32.82,32.878L32.975,32.835L33.13,32.794L33.287,32.755L33.444,32.718L33.601,32.682L33.759,32.649L33.918,32.618L34.077,32.588L34.237,32.561L34.397,32.535L34.558,32.512L34.72,32.49L34.882,32.471L35.044,32.453L35.207,32.438L35.37,32.424L35.534,32.413L35.699,32.403L35.863,32.396L36.028,32.391L36.194,32.388L36.351,32.387L603.649,32.387L603.806,32.388ZM36.369,41.453L36.267,41.454L36.175,41.456L36.083,41.459L35.991,41.463L35.9,41.468L35.809,41.474L35.719,41.482L35.629,41.49L35.539,41.5L35.45,41.511L35.362,41.523L35.274,41.535L35.186,41.549L35.099,41.564L35.012,41.58L34.926,41.597L34.84,41.616L34.755,41.635L34.671,41.655L34.587,41.676L34.503,41.698L34.42,41.721L34.338,41.745L34.256,41.77L34.175,41.796L34.094,41.822L34.014,41.85L33.934,41.878L33.855,41.908L33.777,41.938L33.7,41.969L33.623,42.001L33.546,42.034L33.471,42.068L33.396,42.102L33.321,42.138L33.248,42.174L33.175,42.211L33.102,42.248L33.031,42.286L32.96,42.326L32.89,42.365L32.82,42.406L32.752,42.447L32.684,42.489L32.616,42.531L32.55,42.575L32.484,42.618L32.42,42.663L32.356,42.708L32.292,42.753L32.23,42.799L32.168,42.846L32.107,42.893L32.047,42.941L31.988,42.989L31.93,43.038L31.872,43.087L31.816,43.137L31.76,43.187L31.705,43.238L31.651,43.289L31.598,43.34L31.545,43.392L31.494,43.444L31.443,43.496L31.394,43.549L31.345,43.602L31.297,43.656L31.25,43.709L31.204,43.763L31.159,43.817L31.114,43.872L31.071,43.926L31.029,43.981L30.987,44.036L30.946,44.091L30.907,44.146L30.868,44.202L30.83,44.257L30.793,44.313L30.757,44.368L30.721,44.424L30.687,44.48L30.654,44.536L30.621,44.592L30.589,44.648L30.559,44.703L30.529,44.759L30.5,44.815L30.472,44.871L30.444,44.927L30.418,44.983L30.392,45.038L30.368,45.094L30.344,45.149L30.321,45.205L30.298,45.26L30.277,45.316L30.256,45.371L30.237,45.426L30.218,45.481L30.199,45.537L30.182,45.592L30.165,45.647L30.149,45.701L30.134,45.756L30.12,45.811L30.106,45.866L30.093,45.921L30.081,45.975L30.069,46.03L30.058,46.085L30.048,46.139L30.039,46.194L30.03,46.249L30.022,46.304L30.015,46.359L30.008,46.414L30.002,46.469L29.997,46.525L29.992,46.581L29.988,46.636L29.985,46.693L29.983,46.749L29.981,46.806L29.98,46.863L29.979,46.938L29.979,583.682L29.98,583.757L29.981,583.814L29.983,583.871L29.985,583.927L29.988,583.984L29.992,584.039L29.997,584.095L30.002,584.151L30.008,584.206L30.015,584.261L30.022,584.316L30.03,584.371L30.039,584.426L30.048,584.481L30.058,584.535L30.069,584.59L30.081,584.645L30.093,584.7L30.106,584.754L30.12,584.809L30.134,584.864L30.149,584.919L30.165,584.974L30.182,585.028L30.199,585.083L30.218,585.139L30.237,585.194L30.256,585.249L30.277,585.304L30.298,585.359L30.321,585.415L30.344,585.471L30.368,585.526L30.392,585.582L30.418,585.637L30.444,585.693L30.472,585.749L30.5,585.805L30.529,585.861L30.559,585.916L30.589,585.972L30.621,586.028L30.654,586.084L30.687,586.14L30.721,586.196L30.757,586.252L30.793,586.307L30.83,586.363L30.868,586.418L30.907,586.474L30.946,586.529L30.987,586.584L31.029,586.639L31.071,586.694L31.115,586.748L31.159,586.803L31.204,586.857L31.25,586.911L31.297,586.964L31.345,587.017L31.394,587.071L31.444,587.124L31.494,587.176L31.545,587.228L31.598,587.28L31.651,587.331L31.705,587.382L31.76,587.433L31.816,587.483L31.872,587.533L31.93,587.582L31.988,587.63L32.047,587.679L32.107,587.727L32.168,587.774L32.23,587.821L32.292,587.867L32.356,587.912L32.419,587.957L32.484,588.002L32.55,588.046L32.616,588.089L32.684,588.131L32.751,588.173L32.82,588.214L32.89,588.255L32.96,588.294L33.031,588.333L33.102,588.372L33.174,588.409L33.247,588.446L33.321,588.482L33.395,588.518L33.471,588.552L33.546,588.586L33.622,588.619L33.7,588.651L33.777,588.682L33.856,588.712L33.934,588.741L34.014,588.77L34.094,588.798L34.175,588.825L34.256,588.85L34.337,588.875L34.42,588.899L34.503,588.922L34.587,588.944L34.67,588.965L34.756,588.985L34.841,589.005L34.926,589.023L35.012,589.04L35.099,589.056L35.186,589.071L35.274,589.085L35.361,589.097L35.45,589.109L35.54,589.12L35.629,589.13L35.718,589.138L35.809,589.146L35.9,589.152L35.991,589.157L36.083,589.161L36.175,589.164L36.267,589.166L36.369,589.167L603.631,589.167L603.733,589.166L603.825,589.164L603.917,589.161L604.009,589.157L604.1,589.152L604.191,589.146L604.282,589.138L604.371,589.13L604.46,589.12L604.55,589.109L604.639,589.097L604.726,589.085L604.814,589.071L604.901,589.056L604.988,589.04L605.074,589.023L605.159,589.005L605.244,588.985L605.33,588.965L605.413,588.944L605.497,588.922L605.58,588.899L605.663,588.875L605.745,588.85L605.825,588.825L605.906,588.798L605.986,588.77L606.066,588.741L606.144,588.712L606.223,588.682L606.3,588.651L606.378,588.619L606.454,588.586L606.529,588.552L606.605,588.517L606.679,588.482L606.753,588.446L606.825,588.409L606.898,588.372L606.969,588.333L607.04,588.295L607.11,588.255L607.18,588.214L607.249,588.173L607.316,588.131L607.383,588.089L607.45,588.046L607.516,588.002L607.581,587.957L607.645,587.912L607.708,587.867L607.77,587.821L607.832,587.774L607.893,587.726L607.952,587.679L608.012,587.631L608.07,587.582L608.127,587.533L608.184,587.483L608.24,587.433L608.295,587.382L608.349,587.331L608.402,587.28L608.455,587.228L608.506,587.176L608.557,587.124L608.606,587.071L608.655,587.018L608.703,586.964L608.75,586.911L608.796,586.857L608.841,586.803L608.886,586.748L608.929,586.694L608.971,586.639L609.013,586.584L609.054,586.529L609.093,586.474L609.132,586.418L609.17,586.363L609.207,586.307L609.244,586.251L609.278,586.196L609.313,586.14L609.346,586.084L609.379,586.028L609.411,585.972L609.441,585.917L609.471,585.861L609.5,585.805L609.528,585.749L609.556,585.693L609.582,585.638L609.608,585.582L609.632,585.526L609.656,585.471L609.679,585.416L609.702,585.36L609.723,585.304L609.744,585.249L609.763,585.194L609.782,585.139L609.801,585.083L609.818,585.027L609.835,584.974L609.851,584.919L609.866,584.864L609.88,584.809L609.894,584.754L609.907,584.7L609.919,584.645L609.931,584.59L609.942,584.535L609.952,584.481L609.961,584.426L609.97,584.37L609.978,584.316L609.985,584.262L609.992,584.206L609.998,584.15L610.003,584.095L610.008,584.039L610.012,583.983L610.015,583.928L610.017,583.871L610.019,583.814L610.02,583.757L610.021,583.683L610.021,46.937L610.02,46.863L610.019,46.806L610.017,46.749L610.015,46.692L610.012,46.637L610.008,46.581L610.003,46.525L609.998,46.47L609.992,46.414L609.985,46.358L609.978,46.304L609.97,46.25L609.961,46.194L609.952,46.139L609.942,46.085L609.931,46.03L609.919,45.975L609.907,45.92L609.894,45.866L609.88,45.811L609.866,45.757L609.851,45.701L609.835,45.646L609.818,45.592L609.801,45.537L609.782,45.481L609.763,45.426L609.744,45.371L609.723,45.316L609.701,45.26L609.679,45.204L609.656,45.149L609.632,45.094L609.608,45.038L609.582,44.982L609.556,44.927L609.529,44.871L609.5,44.815L609.471,44.759L609.441,44.703L609.411,44.648L609.379,44.592L609.346,44.536L609.313,44.48L609.278,44.424L609.244,44.369L609.207,44.313L609.17,44.257L609.132,44.202L609.093,44.146L609.054,44.091L609.013,44.036L608.971,43.981L608.929,43.926L608.886,43.872L608.841,43.817L608.796,43.763L608.75,43.709L608.703,43.656L608.655,43.602L608.606,43.549L608.557,43.497L608.506,43.444L608.455,43.392L608.402,43.34L608.349,43.289L608.295,43.238L608.24,43.187L608.184,43.137L608.128,43.087L608.07,43.038L608.012,42.989L607.952,42.941L607.893,42.894L607.832,42.846L607.77,42.799L607.708,42.753L607.645,42.708L607.58,42.663L607.516,42.618L607.45,42.574L607.383,42.531L607.316,42.489L607.249,42.447L607.18,42.406L607.11,42.365L607.04,42.325L606.969,42.286L606.898,42.248L606.825,42.21L606.753,42.174L606.679,42.138L606.604,42.102L606.529,42.068L606.454,42.034L606.377,42.001L606.3,41.969L606.223,41.938L606.145,41.908L606.066,41.878L605.986,41.85L605.906,41.822L605.825,41.795L605.744,41.77L605.662,41.745L605.58,41.721L605.497,41.698L605.413,41.676L605.329,41.655L605.245,41.635L605.16,41.616L605.074,41.597L604.988,41.58L604.901,41.564L604.814,41.549L604.726,41.535L604.638,41.523L604.55,41.511L604.461,41.5L604.371,41.49L604.281,41.482L604.191,41.474L604.1,41.468L604.009,41.463L603.917,41.459L603.825,41.456L603.733,41.454L603.631,41.453L36.369,41.453Z" style="fill:rgb(50,50,50);"/>
                </g>
                <g id="b2RLbOY1gH" transform="matrix(1,0,0,1,-2,12)">
                    <path d="M374.94,238.93C393.72,238.93 408.95,254.15 408.95,272.93C408.95,290.16 408.95,310.82 408.95,328.79C408.95,345.51 395.39,359.07 378.67,359.07C358.13,359.07 326.81,359.07 306.28,359.07C289.55,359.07 276,345.51 276,328.79C276,310.82 276,287.18 276,269.21C276,252.48 289.55,238.93 306.28,238.93C326.81,238.93 355.16,238.93 374.94,238.93Z" style="fill:rgb(25,25,25);fill-opacity:0;fill-rule:nonzero;stroke:rgb(51,51,51);stroke-width:6px;"/>
                </g>
                <g id="a9y8nt61AR" transform="matrix(1,0,0,1,-2,12)">
                    <path d="M248.66,411.56C249.06,405.35 246.88,399.7 242.12,394.62C237.37,389.53 230.93,386.8 222.81,386.41" style="fill-opacity:0;fill-rule:nonzero;stroke:rgb(21,21,255);stroke-width:3px;"/>
                </g>
                <g id="aOzkSv39b" transform="matrix(1,0,0,1,-2,12)">
                    <path d="M266.38,411.56C266.79,400.27 263.15,390.54 255.45,382.37C247.75,374.19 237.48,369.95 224.64,369.65" style="fill-opacity:0;fill-rule:nonzero;stroke:rgb(21,21,255);stroke-width:3px;"/>
                </g>
                <g id="f2PRba2WIP" transform="matrix(1,0,0,1,-2,12)">
                    <path d="M285.58,410.49C284.84,393.42 279.85,379.8 270.63,369.65C261.4,359.49 246.74,353.69 226.65,352.24" style="fill-opacity:0;fill-rule:nonzero;stroke:rgb(21,21,255);stroke-width:3px;"/>
                </g>
                <g transform="matrix(1,0,0,1,148.117,511.297)">
                    <g id="B">
                        <text id="B1" x="0px" y="0px" style="font-family:'Impact', sans-serif;font-stretch:condensed;font-size:80px;fill:rgb(51,51,51);">B</text>
                    </g>
                </g>
                <g id="b11tUnIun9" transform="matrix(1,0,0,1,-2,12)">
                    <path d="M202.88,408.42C221.66,408.42 236.88,423.64 236.88,442.42C236.88,459.65 236.88,480.31 236.88,498.28C236.88,515 223.33,528.56 206.6,528.56C186.07,528.56 154.75,528.56 134.21,528.56C117.49,528.56 103.93,515 103.93,498.28C103.93,480.31 103.93,456.67 103.93,438.7C103.93,421.98 117.49,408.42 134.21,408.42C154.75,408.42 183.09,408.42 202.88,408.42Z" style="fill:rgb(51,51,51);fill-opacity:0;fill-rule:nonzero;stroke:rgb(52,52,52);stroke-width:6px;"/>
                </g>
                <g id="a7Ffg2HSa" transform="matrix(1,0,0,1,-2,12)">
                    <path d="M472.56,194.95L476.65,177.3L459.68,182.53L463.86,186.56L443.71,207.46L411.31,241.07L414.77,244.4L467.32,189.9L472.56,194.95Z" style="fill:rgb(51,51,51);fill-rule:nonzero;stroke:rgb(51,51,51);stroke-width:1px;stroke-linejoin:round;stroke-miterlimit:1.41421;"/>
                </g>
                <g transform="matrix(1,0,0,1,-30.5618,27.92)">
                    <path d="M515.287,145.122C515.313,137.588 515.182,111.786 515.195,104C515.2,101.133 518.867,97.682 523.055,97.588C529.39,97.446 545.195,97.445 551.488,97.543C554.989,97.598 560.168,99.204 561.195,102.116C562.138,104.791 561.837,107.357 561.88,109.992C561.995,117.137 561.799,138.746 561.888,144.984C561.922,147.436 558.592,148.001 558.562,148C557.058,147.967 554.76,146.794 554.762,145C554.768,138.941 554.762,112.8 554.762,112.8L551.662,112.8L551.662,146L551.462,146C551.462,146 551.407,183.419 551.462,192C551.471,193.469 550.179,196.481 546,196.5C541.768,196.52 539.981,193.74 540,192C540.091,183.45 540,146 540,146L536.962,146C536.962,146 537.054,183.715 537,192C536.984,194.404 533.275,196.752 531.202,196.699C528.9,196.641 525.39,194.338 525.365,191.735C525.297,184.629 525.598,145.969 525.598,145.969L525.222,145.974L525.206,112.864L522.278,112.843C522.278,112.843 522.283,139.417 522.215,145.286C522.199,146.663 519.844,148.027 518.69,148C517.535,147.973 515.282,146.789 515.287,145.122Z" style="fill:rgb(51,51,51);"/>
                </g>
                <g transform="matrix(1,0,0,1,318.657,342.32)">
                    <g id="H">
                        <g>
                            <text x="0px" y="0px" style="font-family:'Impact', sans-serif;font-stretch:condensed;font-size:80px;fill:none;">H</text>
                            <text x="0px" y="0px" style="font-family:'Impact', sans-serif;font-stretch:condensed;font-size:80px;fill:rgb(51,51,51);stroke:rgb(51,51,51);stroke-width:1px;stroke-linejoin:round;stroke-miterlimit:1.41421;">H</text>
                        </g>
                    </g>
                </g>
                <g transform="matrix(1,0,0,1,244.642,462.676)">
                    <g id="ping">
                        <text id="Ping" x="0px" y="0px" style="font-family:'Arial-BoldMT', 'Arial', sans-serif;font-weight:700;font-size:33px;fill:rgb(51,51,51);">Ping!</text>
                    </g>
                </g>
                <g transform="matrix(1,0,0,1,419.524,295.032)">
                    <g id="Alert">
                        <g>
                            <text x="0px" y="0px" style="font-family:'Arial-BoldMT', 'Arial', sans-serif;font-weight:700;font-size:33px;fill:none;">Alert!</text>
                            <text x="0px" y="0px" style="font-family:'Arial-BoldMT', 'Arial', sans-serif;font-weight:700;font-size:33px;fill:rgb(50,50,50);">Alert!</text>
                        </g>
                    </g>
                </g>
                <g transform="matrix(1.15789,0,0,1.16667,-118.404,13.2533)">
                    <ellipse cx="540.5" cy="85" rx="9.5" ry="9" style="fill:rgb(51,51,51);stroke:rgb(51,51,51);stroke-width:0.59px;"/>
                </g>
            </g>
        </g>
    </g>
</svg>
