<?xml version="1.0" encoding="UTF-8" standalone="no"?>
<!DOCTYPE svg PUBLIC "-//W3C//DTD SVG 1.1//EN" "http://www.w3.org/Graphics/SVG/1.1/DTD/svg11.dtd">
<svg width="100%" height="100%" viewBox="0 0 701 613" version="1.1" xmlns="http://www.w3.org/2000/svg" xmlns:xlink="http://www.w3.org/1999/xlink" xml:space="preserve" style="fill-rule:evenodd;clip-rule:evenodd;">
    <g transform="matrix(1,0,0,1,-6,-2046.24)">
        <g id="Layes" transform="matrix(1.09531,0,0,0.902504,6,2046.24)">
            <rect x="0" y="0" width="640" height="679" style="fill:none;"/>
            <clipPath id="_clip1">
                <rect x="0" y="0" width="640" height="679"/>
            </clipPath>
            <g clip-path="url(#_clip1)">
                <g transform="matrix(1,0,0,1,0,-23.2797)">
                    <g id="Big" transform="matrix(0.912981,0,0,1.10803,27.8459,-8.55398)">
                        <path d="M603.64,35.73C609.17,35.73 613.64,40.21 613.64,45.73C613.64,155.09 613.64,473.16 613.64,582.51C613.64,588.03 609.17,592.51 603.64,592.51C488.19,592.51 151.81,592.51 36.36,592.51C30.83,592.51 26.36,588.03 26.36,582.51C26.36,473.16 26.36,155.09 26.36,45.73C26.36,40.21 30.83,35.73 36.36,35.73C151.81,35.73 488.19,35.73 603.64,35.73Z" style="fill-opacity:0;fill-rule:nonzero;stroke:rgb(51,51,51);stroke-width:5.42px;"/>
                    </g>
                    <g id="B.-box" transform="matrix(0.912981,0,0,1.10803,-11.2752,37.2241)">
                        <path id="B.-box1" d="M202.88,408.42C221.66,408.42 236.88,423.64 236.88,442.42C236.88,459.65 236.88,480.31 236.88,498.28C236.88,515 223.33,528.56 206.6,528.56C186.07,528.56 154.75,528.56 134.21,528.56C117.49,528.56 103.93,515 103.93,498.28C103.93,480.31 103.93,456.67 103.93,438.7C103.93,421.98 117.49,408.42 134.21,408.42C154.75,408.42 183.09,408.42 202.88,408.42Z" style="fill:rgb(255,0,68);fill-opacity:0;fill-rule:nonzero;"/>
                        <clipPath id="_clip2">
                            <path id="B.-box2" d="M202.88,408.42C221.66,408.42 236.88,423.64 236.88,442.42C236.88,459.65 236.88,480.31 236.88,498.28C236.88,515 223.33,528.56 206.6,528.56C186.07,528.56 154.75,528.56 134.21,528.56C117.49,528.56 103.93,515 103.93,498.28C103.93,480.31 103.93,456.67 103.93,438.7C103.93,421.98 117.49,408.42 134.21,408.42C154.75,408.42 183.09,408.42 202.88,408.42Z" clip-rule="nonzero"/>
                        </clipPath>
                        <g clip-path="url(#_clip2)">
                            <g id="B" transform="matrix(1,0,0,1,150.117,500.297)">
                                <text x="0px" y="0px" style="font-family:'Impact', sans-serif;font-stretch:condensed;font-size:80px;fill:none;">B</text>
                                <text x="0px" y="0px" style="font-family:'Impact', sans-serif;font-stretch:condensed;font-size:80px;fill:rgb(51,51,51);stroke:rgb(51,51,51);stroke-width:1px;stroke-linejoin:round;stroke-miterlimit:1.41421;">B</text>
                            </g>
                        </g>
                        <path id="B.-box3" d="M202.88,408.42C221.66,408.42 236.88,423.64 236.88,442.42C236.88,459.65 236.88,480.31 236.88,498.28C236.88,515 223.33,528.56 206.6,528.56C186.07,528.56 154.75,528.56 134.21,528.56C117.49,528.56 103.93,515 103.93,498.28C103.93,480.31 103.93,456.67 103.93,438.7C103.93,421.98 117.49,408.42 134.21,408.42C154.75,408.42 183.09,408.42 202.88,408.42Z" style="fill:none;stroke:rgb(51,51,51);stroke-width:5.33px;"/>
                        <g id="signal" transform="matrix(1,0,0,1,-5,6)">
                            <path id="a9y8nt61AR" d="M248.66,411.56C249.06,405.35 246.88,399.7 242.12,394.62C237.37,389.53 230.93,386.8 222.81,386.41" style="fill:rgb(255,0,68);fill-opacity:0;fill-rule:nonzero;stroke:rgb(21,21,255);stroke-width:3px;"/>
                            <path id="aOzkSv39b" d="M266.38,411.56C266.79,400.27 263.15,390.54 255.45,382.37C247.75,374.19 237.48,369.95 224.64,369.65" style="fill:rgb(255,0,68);fill-opacity:0;fill-rule:nonzero;stroke:rgb(21,21,255);stroke-width:3px;"/>
                            <path id="f2PRba2WIP" d="M285.58,410.49C284.84,393.42 279.85,379.8 270.63,369.65C261.4,359.49 246.74,353.69 226.65,352.24" style="fill:rgb(247,0,30);fill-opacity:0;fill-rule:nonzero;stroke:rgb(21,21,255);stroke-width:3px;"/>
                        </g>
                    </g>
                    <g>
                        <g transform="matrix(1.09558,0,0,1.15632,-116.679,-755.072)">
                            <path d="M619,1131.75C619,1118.64 609.745,1108 598.346,1108L394.654,1108C383.255,1108 374,1118.64 374,1131.75L374,1179.25C374,1192.36 383.255,1203 394.654,1203L598.346,1203C609.745,1203 619,1192.36 619,1179.25L619,1131.75Z" style="fill:none;stroke:black;stroke-width:3.33px;stroke-linecap:round;stroke-linejoin:round;stroke-miterlimit:1.5;stroke-dasharray:3.33,6.67,0,0;"/>
                        </g>
                        <g transform="matrix(0.912981,0,0,1.10803,0.787527,-728.994)">
                            <text x="358.121px" y="1190.77px" style="font-family:'HelveticaNeue', 'Helvetica Neue';font-size:33.333px;fill:none;">Physical Layer</text>
                            <text x="358.121px" y="1190.77px" style="font-family:'HelveticaNeue', 'Helvetica Neue';font-size:33.333px;fill:rgb(51,51,51);">Physical Layer</text>
                        </g>
                    </g>
                    <g>
                        <g transform="matrix(0.912981,0,0,1.10803,30.2388,-710.144)">
                            <text x="393.862px" y="1068.21px" style="font-family:'HelveticaNeue', 'Helvetica Neue';font-size:33.333px;fill:none;">VLAN</text>
                            <text x="393.862px" y="1068.21px" style="font-family:'HelveticaNeue', 'Helvetica Neue';font-size:33.333px;">VLAN</text>
                        </g>
                        <g transform="matrix(1.09558,0,0,1.15632,-116.679,-875.847)">
                            <path d="M619,1131.75C619,1118.64 609.745,1108 598.346,1108L394.654,1108C383.255,1108 374,1118.64 374,1131.75L374,1179.25C374,1192.36 383.255,1203 394.654,1203L598.346,1203C609.745,1203 619,1192.36 619,1179.25L619,1131.75Z" style="fill:none;stroke:black;stroke-width:3.33px;stroke-linecap:round;stroke-linejoin:round;stroke-miterlimit:1.5;stroke-dasharray:3.33,6.67,0,0;"/>
                        </g>
                    </g>
                    <g transform="matrix(1.09558,0,0,1.15632,-116.679,-996.622)">
                        <path d="M619,1131.75C619,1118.64 609.745,1108 598.346,1108L394.654,1108C383.255,1108 374,1118.64 374,1131.75L374,1179.25C374,1192.36 383.255,1203 394.654,1203L598.346,1203C609.745,1203 619,1192.36 619,1179.25L619,1131.75Z" style="fill:none;"/>
                        <clipPath id="_clip3">
                            <path d="M619,1131.75C619,1118.64 609.745,1108 598.346,1108L394.654,1108C383.255,1108 374,1118.64 374,1131.75L374,1179.25C374,1192.36 383.255,1203 394.654,1203L598.346,1203C609.745,1203 619,1192.36 619,1179.25L619,1131.75Z"/>
                        </clipPath>
                        <g clip-path="url(#_clip3)">
                            <g transform="matrix(0.833333,0,0,0.958241,41.2792,235.07)">
                                <text x="426.098px" y="972.458px" style="font-family:'HelveticaNeue', 'Helvetica Neue';font-size:33.333px;fill:none;">MPLS/VPN/VPC</text>
                                <text x="426.098px" y="972.458px" style="font-family:'HelveticaNeue', 'Helvetica Neue';font-size:33.333px;fill:rgb(51,51,51);">MPLS/VPN/VPC</text>
                            </g>
                        </g>
                        <path d="M619,1131.75C619,1118.64 609.745,1108 598.346,1108L394.654,1108C383.255,1108 374,1118.64 374,1131.75L374,1179.25C374,1192.36 383.255,1203 394.654,1203L598.346,1203C609.745,1203 619,1192.36 619,1179.25L619,1131.75Z" style="fill:none;stroke:rgb(51,51,51);stroke-width:3.33px;stroke-linecap:round;stroke-linejoin:round;stroke-miterlimit:1.5;stroke-dasharray:3.33,6.67,0,0;"/>
                    </g>
                    <g transform="matrix(1.09558,0,0,1.15632,-116.679,-1117.4)">
                        <path d="M619,1131.75C619,1118.64 609.745,1108 598.346,1108L394.654,1108C383.255,1108 374,1118.64 374,1131.75L374,1179.25C374,1192.36 383.255,1203 394.654,1203L598.346,1203C609.745,1203 619,1192.36 619,1179.25L619,1131.75Z" style="fill:none;"/>
                        <clipPath id="_clip4">
                            <path d="M619,1131.75C619,1118.64 609.745,1108 598.346,1108L394.654,1108C383.255,1108 374,1118.64 374,1131.75L374,1179.25C374,1192.36 383.255,1203 394.654,1203L598.346,1203C609.745,1203 619,1192.36 619,1179.25L619,1131.75Z"/>
                        </clipPath>
                        <g clip-path="url(#_clip4)">
                            <g transform="matrix(0.833333,0,0,0.958241,52.5709,218.732)">
                                <text x="426.098px" y="972.458px" style="font-family:'HelveticaNeue', 'Helvetica Neue';font-size:33.333px;fill:none;">Routing / FW /</text>
                                <text x="478.898px" y="1006.73px" style="font-family:'HelveticaNeue', 'Helvetica Neue';font-size:33.333px;fill:none;">Pr<tspan x="510.998px 530.132px " y="1006.73px 1006.73px ">ox</tspan>ies</text>
                                <text x="426.098px" y="972.458px" style="font-family:'HelveticaNeue', 'Helvetica Neue';font-size:33.333px;fill:rgb(51,51,51);">Routing / FW /</text>
                                <text x="478.898px" y="1006.73px" style="font-family:'HelveticaNeue', 'Helvetica Neue';font-size:33.333px;fill:rgb(51,51,51);">Pr<tspan x="510.998px 530.132px " y="1006.73px 1006.73px ">ox</tspan>ies</text>
                            </g>
                        </g>
                        <path d="M619,1131.75C619,1118.64 609.745,1108 598.346,1108L394.654,1108C383.255,1108 374,1118.64 374,1131.75L374,1179.25C374,1192.36 383.255,1203 394.654,1203L598.346,1203C609.745,1203 619,1192.36 619,1179.25L619,1131.75Z" style="fill:none;stroke:rgb(51,51,51);stroke-width:3.33px;stroke-linecap:round;stroke-linejoin:round;stroke-miterlimit:1.5;stroke-dasharray:3.33,6.67,0,0;"/>
                    </g>
                    <g>
                        <g transform="matrix(1.09558,0,0,1.15632,-116.679,-1238.17)">
                            <path d="M619,1131.75C619,1118.64 609.745,1108 598.346,1108L394.654,1108C383.255,1108 374,1118.64 374,1131.75L374,1179.25C374,1192.36 383.255,1203 394.654,1203L598.346,1203C609.745,1203 619,1192.36 619,1179.25L619,1131.75Z" style="fill:none;stroke:rgb(51,51,51);stroke-width:3.33px;stroke-linecap:round;stroke-linejoin:round;stroke-miterlimit:1.5;stroke-dasharray:3.33,6.67,0,0;"/>
                        </g>
                        <g transform="matrix(0.912981,0,0,1.10803,-59.0836,-990.79)">
                            <text x="452.648px" y="972.458px" style="font-family:'HelveticaNeue', 'Helvetica Neue';font-size:33.333px;fill:none;">App A<tspan x="544.048px 569.315px 587.215px 597.715px " y="972.458px 972.458px 972.458px 972.458px ">ware</tspan></text>
                            <text x="448.965px" y="1006.73px" style="font-family:'HelveticaNeue', 'Helvetica Neue';font-size:33.333px;fill:none;">Networking</text>
                            <text x="452.648px" y="972.458px" style="font-family:'HelveticaNeue', 'Helvetica Neue';font-size:33.333px;fill:rgb(51,51,51);">App A<tspan x="544.048px 569.315px 587.215px 597.715px " y="972.458px 972.458px 972.458px 972.458px ">ware</tspan></text>
                            <text x="448.965px" y="1006.73px" style="font-family:'HelveticaNeue', 'Helvetica Neue';font-size:33.333px;fill:rgb(51,51,51);">Networking</text>
                        </g>
                    </g>
                </g>
            </g>
        </g>
    </g>
</svg>
