<?xml version="1.0" encoding="UTF-8" standalone="no"?>
<!DOCTYPE svg PUBLIC "-//W3C//DTD SVG 1.1//EN" "http://www.w3.org/Graphics/SVG/1.1/DTD/svg11.dtd">
<svg width="100%" height="100%" viewBox="0 0 701 613" version="1.1" xmlns="http://www.w3.org/2000/svg" xmlns:xlink="http://www.w3.org/1999/xlink" xml:space="preserve" xmlns:serif="http://www.serif.com/" style="fill-rule:evenodd;clip-rule:evenodd;">
    <g transform="matrix(1,0,0,1,-1644.16,-708.462)">
        <g id="one-among-others" transform="matrix(1.09531,0,0,0.902504,1644.16,708.462)">
            <rect x="0" y="0" width="640" height="679" style="fill:none;"/>
            <clipPath id="_clip1">
                <rect x="0" y="0" width="640" height="679"/>
            </clipPath>
            <g clip-path="url(#_clip1)">
                <g transform="matrix(1,0,0,1,27.3894,0.853182)">
                    <g id="box" transform="matrix(0.912981,0,0,1.10803,-3.49647,47.6452)">
                        <g transform="matrix(1,0,0,0.899422,0,8.40335)">
                            <g id="bigbox">
                                <path id="BigBox" d="M603.64,36.92C609.17,36.92 613.64,41.4 613.64,46.92C613.64,156.28 613.64,474.34 613.64,583.7C613.64,589.22 609.17,593.7 603.64,593.7C488.19,593.7 151.81,593.7 36.36,593.7C30.83,593.7 26.36,589.22 26.36,583.7C26.36,474.34 26.36,156.28 26.36,46.92C26.36,41.4 30.83,36.92 36.36,36.92C151.81,36.92 488.19,36.92 603.64,36.92Z" style="fill:none;stroke:rgb(45,57,65);stroke-width:14.17px;"/>
                            </g>
                        </g>
                        <g id="Router" transform="matrix(1.29405,0,0,1.29405,-89.7861,-24.4848)">
                            <g transform="matrix(0.868631,0,0,0.885953,182.44,-2214.03)">
                                <ellipse cx="154.338" cy="2531.24" rx="44.344" ry="43.073" style="fill:white;"/>
                            </g>
                            <g id="icon" transform="matrix(4.70968,0,0,4.68496,316.576,28.5822)">
                                <g transform="matrix(1,0,0,1,-8.29,-8.29)">
                                    <g>
                                        <path d="M8.29,0C3.719,0 0,3.718 0,8.29C0,12.862 3.718,16.58 8.29,16.58C12.862,16.58 16.58,12.861 16.58,8.29C16.58,3.719 12.861,0 8.29,0ZM8.29,15.808C4.144,15.808 0.771,12.435 0.771,8.289C0.771,4.143 4.144,0.77 8.29,0.77C12.436,0.77 15.809,4.143 15.809,8.289C15.809,12.435 12.436,15.808 8.29,15.808Z" style="fill:rgb(3,1,4);fill-rule:nonzero;"/>
                                        <path d="M15.145,7.258C14.599,7.258 13.174,7.258 12.442,7.258C12.204,7.258 12.049,7.258 12.049,7.258C12.049,7.258 12.049,6.689 12.049,6.331C12.049,5.974 11.781,6.243 11.781,6.243C11.781,6.243 9.769,7.759 9.558,7.97C9.404,8.123 9.575,8.27 9.575,8.27L11.728,10.051C11.728,10.051 11.985,10.322 11.985,10.029C11.985,9.735 11.985,9.025 11.985,9.025L15.119,9.025C15.119,9.025 15.271,9.064 15.271,8.834C15.271,8.602 15.271,7.586 15.271,7.421C15.272,7.254 15.145,7.258 15.145,7.258Z" style="fill:rgb(3,1,4);fill-rule:nonzero;"/>
                                        <path d="M7.066,7.97C6.855,7.759 4.842,6.243 4.842,6.243C4.842,6.243 4.575,5.974 4.575,6.331C4.575,6.688 4.575,7.258 4.575,7.258C4.575,7.258 4.42,7.258 4.182,7.258C3.45,7.258 2.024,7.258 1.479,7.258C1.479,7.258 1.352,7.254 1.352,7.42C1.352,7.585 1.352,8.601 1.352,8.833C1.352,9.063 1.504,9.024 1.504,9.024L4.638,9.024C4.638,9.024 4.638,9.734 4.638,10.028C4.638,10.321 4.894,10.05 4.894,10.05L7.047,8.269C7.049,8.27 7.221,8.123 7.066,7.97Z" style="fill:rgb(3,1,4);fill-rule:nonzero;"/>
                                        <path d="M8.5,9.505C8.348,9.352 8.201,9.523 8.201,9.523L6.42,11.676C6.42,11.676 6.149,11.932 6.442,11.932C6.736,11.932 7.446,11.932 7.446,11.932L7.446,15.066C7.446,15.066 7.406,15.218 7.637,15.218C7.869,15.218 8.885,15.218 9.05,15.218C9.216,15.218 9.212,15.091 9.212,15.091C9.212,14.546 9.212,13.12 9.212,12.389C9.212,12.151 9.212,11.995 9.212,11.995C9.212,11.995 9.781,11.995 10.139,11.995C10.495,11.995 10.227,11.728 10.227,11.728C10.227,11.728 8.711,9.716 8.5,9.505Z" style="fill:rgb(3,1,4);fill-rule:nonzero;"/>
                                        <path d="M6.42,4.893L8.201,7.046C8.201,7.046 8.347,7.218 8.5,7.064C8.711,6.853 10.228,4.841 10.228,4.841C10.228,4.841 10.497,4.574 10.14,4.574C9.783,4.574 9.213,4.574 9.213,4.574C9.213,4.574 9.213,4.419 9.213,4.181C9.213,3.449 9.213,2.024 9.213,1.478C9.213,1.478 9.217,1.351 9.051,1.351C8.886,1.351 7.87,1.351 7.638,1.351C7.407,1.351 7.447,1.503 7.447,1.503L7.447,4.637C7.447,4.637 6.737,4.637 6.443,4.637C6.149,4.637 6.42,4.893 6.42,4.893Z" style="fill:rgb(3,1,4);fill-rule:nonzero;"/>
                                    </g>
                                </g>
                            </g>
                        </g>
                    </g>
                    <g id="Will-it-leak-" serif:id="Will it leak?" transform="matrix(0.912981,0,0,1.10803,24.806,-73.1299)">
                        <g id="will-it-leak" serif:id="will it leak" transform="matrix(0.586239,0,0,0.586239,348.568,80.8245)">
                            <text x="88.379px" y="100.409px" style="font-family:'Arial-BoldMT', 'Arial', sans-serif;font-weight:700;font-size:48px;fill:rgb(45,57,65);">W<tspan x="133.262px 146.598px " y="100.409px 100.409px ">il</tspan>l it leak?</text>
                        </g>
                        <g transform="matrix(-0.145827,0.0284906,0.0284906,0.145827,587.924,90.9688)">
                            <g transform="matrix(1,0,0,1,225.746,98.4849)">
                                <path d="M0,72.402L19.473,66.924C17.605,46.545 29.402,26.977 48.667,19.309L43.236,0C13.386,10.801 -4.604,41.313 0,72.402" style="fill:rgb(237,28,36);fill-rule:nonzero;"/>
                            </g>
                            <g transform="matrix(1,0,0,1,198.289,71.1256)">
                                <path d="M0,107.485L19.359,102.039C13.574,66.494 34.153,31.39 68.427,19.303L62.998,0C18.115,15.135 -8.664,61.278 0,107.485" style="fill:rgb(180,24,30);fill-rule:nonzero;"/>
                            </g>
                            <g transform="matrix(1,0,0,1,259.025,167.044)">
                                <path d="M0,-103.959L-5.419,-123.224C-65.335,-103.801 -100.909,-42.025 -88.106,19.265L-68.802,13.835C-78.68,-36.815 -49.309,-87.558 0,-103.959" style="fill:rgb(150,22,25);fill-rule:nonzero;"/>
                            </g>
                        </g>
                    </g>
                    <g id="row" transform="matrix(1,0,0,1,-37.7511,156.511)">
                        <g transform="matrix(0.869604,0,0,1.1038,191.314,-2415.06)">
                            <ellipse cx="154.338" cy="2531.24" rx="44.344" ry="43.073" style="fill:rgb(45,57,65);stroke:rgb(45,57,65);stroke-width:17.1px;stroke-linecap:round;stroke-linejoin:round;stroke-miterlimit:1.5;"/>
                        </g>
                        <g transform="matrix(0.869604,0,0,1.1038,351.695,-2415.06)">
                            <ellipse cx="154.338" cy="2531.24" rx="44.344" ry="43.073" style="fill:rgb(45,57,65);stroke:rgb(45,57,65);stroke-width:17.1px;stroke-linecap:round;stroke-linejoin:round;stroke-miterlimit:1.5;"/>
                        </g>
                        <g transform="matrix(0.869604,0,0,1.1038,32.6178,-2415.06)">
                            <ellipse cx="154.338" cy="2531.24" rx="44.344" ry="43.073" style="fill:rgb(45,57,65);stroke:rgb(45,57,65);stroke-width:17.1px;stroke-linecap:round;stroke-linejoin:round;stroke-miterlimit:1.5;"/>
                        </g>
                    </g>
                    <g id="row1" serif:id="row" transform="matrix(1,0,0,1,-38.3452,-0.853182)">
                        <g transform="matrix(0.869604,0,0,1.1038,192.227,-2417.25)">
                            <ellipse cx="154.338" cy="2531.24" rx="44.344" ry="43.073" style="fill:rgb(45,57,65);stroke:rgb(45,57,65);stroke-width:17.1px;stroke-linecap:round;stroke-linejoin:round;stroke-miterlimit:1.5;"/>
                        </g>
                        <g transform="matrix(0.869604,0,0,1.1038,351.695,-2417.52)">
                            <ellipse cx="154.338" cy="2531.24" rx="44.344" ry="43.073" style="fill:rgb(45,57,65);stroke:rgb(45,57,65);stroke-width:17.1px;stroke-linecap:round;stroke-linejoin:round;stroke-miterlimit:1.5;"/>
                        </g>
                        <g transform="matrix(0.869604,0,0,1.1038,32.6178,-2417.77)">
                            <ellipse cx="154.338" cy="2531.24" rx="44.344" ry="43.073" style="fill:rgb(45,57,65);stroke:rgb(45,57,65);stroke-width:17.1px;stroke-linecap:round;stroke-linejoin:round;stroke-miterlimit:1.5;"/>
                        </g>
                    </g>
                    <g transform="matrix(1,0,0,1,-37.4603,-2.39733)">
                        <g transform="matrix(0.869604,0,0,1.1038,191.03,-2584.69)">
                            <ellipse cx="154.338" cy="2531.24" rx="44.344" ry="43.073" style="fill:rgb(45,57,65);stroke:rgb(45,57,65);stroke-width:17.1px;stroke-linecap:round;stroke-linejoin:round;stroke-miterlimit:1.5;"/>
                        </g>
                        <g transform="matrix(0.869604,0,0,1.1038,32.3325,-2584.12)">
                            <ellipse cx="154.338" cy="2531.24" rx="44.344" ry="43.073" style="fill:rgb(45,57,65);stroke:rgb(45,57,65);stroke-width:17.1px;stroke-linecap:round;stroke-linejoin:round;stroke-miterlimit:1.5;"/>
                        </g>
                        <g id="Beacon-logo" transform="matrix(-0.164915,0,0,0.200147,490.541,252.535)">
                            <g transform="matrix(1,0,0,1,-1181.1,-885.827)">
                                <g id="Layer-1" serif:id="Layer 1" transform="matrix(4.16667,0,0,4.16667,0,0)">
                                    <g transform="matrix(1,0,0,1,309.769,98.3419)">
                                        <path d="M0,127.025C35.4,117.066 56.101,80.166 46.142,44.765C36.511,10.526 1.677,-9.957 -32.628,-2.255L-27.198,17.048C-3.528,12.306 20.245,26.563 26.889,50.181C33.86,74.965 19.369,100.801 -5.415,107.771C-30.2,114.744 -56.036,100.252 -63.007,75.467L-82.26,80.882C-72.303,116.283 -35.401,136.982 0,127.025" style="fill:rgb(82,128,148);fill-rule:nonzero;"/>
                                    </g>
                                    <g>
                                        <g transform="matrix(1,0,0,1,225.746,98.4849)">
                                            <path d="M0,72.402L19.473,66.924C17.605,46.545 29.402,26.977 48.667,19.309L43.236,0C13.386,10.801 -4.604,41.313 0,72.402" style="fill:rgb(237,28,36);fill-rule:nonzero;"/>
                                        </g>
                                        <g transform="matrix(1,0,0,1,198.289,71.1256)">
                                            <path d="M0,107.485L19.359,102.039C13.574,66.494 34.153,31.39 68.427,19.303L62.998,0C18.115,15.135 -8.664,61.278 0,107.485" style="fill:rgb(180,24,30);fill-rule:nonzero;"/>
                                        </g>
                                        <g transform="matrix(1,0,0,1,259.025,167.044)">
                                            <path d="M0,-103.959L-5.419,-123.224C-65.335,-103.801 -100.909,-42.025 -88.106,19.265L-68.802,13.835C-78.68,-36.815 -49.309,-87.558 0,-103.959" style="fill:rgb(150,22,25);fill-rule:nonzero;"/>
                                        </g>
                                    </g>
                                </g>
                            </g>
                        </g>
                    </g>
                </g>
            </g>
        </g>
    </g>
</svg>
