<?xml version="1.0" encoding="UTF-8" standalone="no"?>
<!DOCTYPE svg PUBLIC "-//W3C//DTD SVG 1.1//EN" "http://www.w3.org/Graphics/SVG/1.1/DTD/svg11.dtd">
<svg width="100%" height="100%" viewBox="0 0 701 613" version="1.1" xmlns="http://www.w3.org/2000/svg" xmlns:xlink="http://www.w3.org/1999/xlink" xml:space="preserve" style="fill-rule:evenodd;clip-rule:evenodd;">
    <g transform="matrix(1,0,0,1,-4.74259,0)">
        <g id="network-seggregation" transform="matrix(1.09531,0,0,0.902504,4.74259,0)">
            <rect x="0" y="0" width="640" height="679" style="fill:none;"/>
            <clipPath id="_clip1">
                <rect x="0" y="0" width="640" height="679"/>
            </clipPath>
            <g clip-path="url(#_clip1)">
                <g transform="matrix(1,0,0,1,38.3452,0.853182)">
                    <g id="box" transform="matrix(0.912981,0,0,1.10803,-3.49647,47.6452)">
                        <g transform="matrix(1,0,0,0.899422,0,8.40335)">
                            <g id="bigbox">
                                <g id="BigBox">
                                    <path d="M603.64,36.92C609.17,36.92 613.64,41.4 613.64,46.92C613.64,156.28 613.64,474.34 613.64,583.7C613.64,589.22 609.17,593.7 603.64,593.7C488.19,593.7 151.81,593.7 36.36,593.7C30.83,593.7 26.36,589.22 26.36,583.7C26.36,474.34 26.36,156.28 26.36,46.92C26.36,41.4 30.83,36.92 36.36,36.92C151.81,36.92 488.19,36.92 603.64,36.92Z" style="fill-opacity:0;fill-rule:nonzero;"/>
                                    <path d="M603.813,32.691L603.985,32.695L604.157,32.7L604.328,32.708L604.499,32.718L604.67,32.729L604.84,32.743L605.009,32.76L605.178,32.778L605.347,32.798L605.515,32.821L605.682,32.845L605.849,32.872L606.015,32.9L606.181,32.931L606.346,32.964L606.51,32.998L606.674,33.035L606.837,33.074L606.999,33.114L607.161,33.157L607.321,33.201L607.482,33.248L607.641,33.297L607.8,33.347L607.958,33.399L608.115,33.454L608.271,33.51L608.427,33.568L608.581,33.628L608.735,33.689L608.888,33.753L609.041,33.819L609.192,33.886L609.342,33.955L609.492,34.026L609.64,34.099L609.788,34.173L609.935,34.249L610.08,34.328L610.225,34.407L610.369,34.489L610.512,34.572L610.653,34.657L610.794,34.744L610.934,34.832L611.073,34.923L611.211,35.015L611.347,35.108L611.482,35.203L611.617,35.3L611.75,35.399L611.882,35.499L612.013,35.6L612.143,35.704L612.272,35.809L612.4,35.916L612.526,36.024L612.651,36.134L612.775,36.245L612.898,36.358L613.02,36.472L613.14,36.589L613.259,36.706L613.377,36.826L613.493,36.946L613.608,37.068L613.721,37.192L613.834,37.317L613.945,37.444L614.055,37.572L614.163,37.702L614.27,37.833L614.375,37.965L614.479,38.099L614.582,38.236L614.683,38.372L614.782,38.51L614.88,38.65L614.977,38.791L615.072,38.934L615.165,39.077L615.257,39.223L615.347,39.37L615.436,39.518L615.523,39.667L615.608,39.817L615.692,39.969L615.774,40.123L615.854,40.277L615.932,40.433L616.009,40.59L616.084,40.748L616.157,40.908L616.229,41.069L616.298,41.23L616.366,41.393L616.432,41.558L616.496,41.723L616.558,41.889L616.618,42.057L616.676,42.226L616.733,42.396L616.787,42.566L616.839,42.738L616.889,42.911L616.938,43.086L616.983,43.26L617.027,43.435L617.069,43.612L617.109,43.789L617.147,43.968L617.182,44.148L617.216,44.327L617.247,44.508L617.276,44.691L617.302,44.873L617.327,45.056L617.349,45.24L617.369,45.424L617.386,45.609L617.402,45.795L617.415,45.98L617.425,46.168L617.434,46.356L617.439,46.543L617.443,46.732L617.444,46.906L617.444,583.714L617.443,583.888L617.439,584.077L617.434,584.264L617.425,584.452L617.415,584.64L617.402,584.825L617.386,585.011L617.369,585.196L617.349,585.38L617.327,585.564L617.302,585.747L617.276,585.929L617.247,586.112L617.216,586.293L617.182,586.473L617.147,586.652L617.109,586.83L617.069,587.008L617.027,587.185L616.983,587.36L616.938,587.534L616.889,587.709L616.839,587.882L616.787,588.054L616.733,588.224L616.676,588.394L616.618,588.563L616.558,588.731L616.496,588.897L616.432,589.062L616.366,589.227L616.298,589.39L616.229,589.551L616.157,589.712L616.084,589.872L616.009,590.03L615.932,590.187L615.854,590.343L615.774,590.497L615.692,590.65L615.608,590.803L615.523,590.953L615.436,591.102L615.347,591.25L615.257,591.397L615.165,591.543L615.072,591.686L614.977,591.829L614.88,591.97L614.782,592.109L614.683,592.248L614.582,592.385L614.479,592.521L614.375,592.655L614.27,592.787L614.163,592.918L614.055,593.048L613.945,593.176L613.834,593.302L613.721,593.428L613.608,593.552L613.493,593.674L613.377,593.794L613.258,593.914L613.14,594.032L613.02,594.147L612.898,594.262L612.775,594.375L612.651,594.486L612.526,594.596L612.4,594.704L612.272,594.811L612.144,594.916L612.013,595.02L611.882,595.121L611.75,595.221L611.617,595.32L611.482,595.417L611.347,595.512L611.211,595.605L611.073,595.697L610.934,595.788L610.794,595.876L610.653,595.963L610.511,596.048L610.369,596.131L610.225,596.213L610.08,596.292L609.935,596.37L609.788,596.447L609.64,596.522L609.491,596.594L609.342,596.665L609.192,596.734L609.041,596.801L608.888,596.867L608.735,596.931L608.582,596.992L608.426,597.052L608.271,597.11L608.115,597.166L607.957,597.221L607.8,597.273L607.642,597.323L607.482,597.372L607.322,597.419L607.16,597.463L606.999,597.506L606.837,597.546L606.674,597.585L606.51,597.622L606.346,597.656L606.181,597.689L606.015,597.72L605.849,597.748L605.682,597.775L605.515,597.799L605.347,597.822L605.179,597.842L605.009,597.861L604.84,597.877L604.67,597.891L604.499,597.902L604.328,597.912L604.157,597.92L603.985,597.925L603.812,597.929L603.651,597.93L36.349,597.93L36.187,597.929L36.015,597.925L35.843,597.92L35.672,597.912L35.501,597.902L35.33,597.891L35.16,597.877L34.991,597.861L34.821,597.842L34.653,597.822L34.485,597.799L34.318,597.775L34.151,597.748L33.985,597.72L33.819,597.689L33.654,597.657L33.49,597.622L33.326,597.585L33.163,597.546L33.001,597.506L32.84,597.463L32.678,597.418L32.518,597.372L32.358,597.323L32.2,597.273L32.043,597.221L31.885,597.166L31.729,597.11L31.574,597.052L31.419,596.992L31.265,596.93L31.112,596.867L30.959,596.801L30.808,596.734L30.658,596.665L30.509,596.594L30.36,596.522L30.212,596.447L30.065,596.37L29.92,596.293L29.775,596.213L29.631,596.131L29.488,596.048L29.347,595.963L29.206,595.876L29.066,595.788L28.927,595.697L28.789,595.605L28.653,595.512L28.518,595.417L28.383,595.32L28.25,595.222L28.117,595.121L27.986,595.02L27.856,594.916L27.728,594.811L27.6,594.705L27.474,594.596L27.349,594.486L27.225,594.375L27.102,594.262L26.98,594.147L26.86,594.031L26.741,593.914L26.623,593.794L26.507,593.674L26.392,593.552L26.278,593.428L26.166,593.303L26.055,593.176L25.945,593.048L25.837,592.918L25.73,592.787L25.625,592.654L25.521,592.52L25.419,592.385L25.317,592.248L25.218,592.109L25.12,591.97L25.023,591.829L24.928,591.686L24.835,591.542L24.743,591.397L24.653,591.25L24.564,591.102L24.477,590.953L24.392,590.803L24.308,590.65L24.226,590.497L24.146,590.343L24.068,590.187L23.991,590.03L23.916,589.872L23.843,589.712L23.771,589.552L23.702,589.39L23.634,589.227L23.568,589.062L23.504,588.897L23.442,588.731L23.382,588.563L23.324,588.394L23.267,588.224L23.213,588.054L23.161,587.882L23.111,587.709L23.063,587.535L23.017,587.36L22.973,587.185L22.931,587.008L22.891,586.83L22.853,586.652L22.818,586.473L22.784,586.292L22.753,586.111L22.724,585.93L22.698,585.748L22.673,585.564L22.651,585.38L22.631,585.196L22.614,585.011L22.598,584.825L22.585,584.639L22.575,584.452L22.566,584.265L22.561,584.077L22.557,583.889L22.556,583.715L22.556,46.905L22.557,46.731L22.561,46.543L22.566,46.355L22.575,46.168L22.585,45.981L22.598,45.795L22.614,45.609L22.631,45.424L22.651,45.24L22.673,45.056L22.698,44.872L22.724,44.69L22.753,44.509L22.784,44.327L22.818,44.147L22.853,43.968L22.891,43.79L22.931,43.612L22.973,43.435L23.017,43.26L23.063,43.085L23.111,42.911L23.161,42.738L23.213,42.566L23.267,42.396L23.324,42.226L23.382,42.057L23.442,41.889L23.504,41.723L23.568,41.558L23.634,41.393L23.702,41.23L23.771,41.068L23.843,40.908L23.916,40.748L23.991,40.59L24.068,40.433L24.146,40.277L24.226,40.123L24.308,39.969L24.392,39.817L24.477,39.667L24.564,39.518L24.653,39.37L24.743,39.223L24.835,39.078L24.928,38.934L25.023,38.791L25.12,38.65L25.218,38.51L25.317,38.372L25.418,38.235L25.521,38.1L25.625,37.966L25.73,37.833L25.837,37.702L25.945,37.572L26.055,37.444L26.166,37.317L26.278,37.192L26.392,37.068L26.507,36.946L26.624,36.825L26.741,36.706L26.86,36.589L26.98,36.473L27.102,36.358L27.225,36.245L27.349,36.134L27.474,36.024L27.6,35.916L27.728,35.809L27.857,35.704L27.986,35.6L28.118,35.499L28.25,35.398L28.383,35.3L28.518,35.203L28.653,35.108L28.79,35.014L28.927,34.923L29.066,34.832L29.206,34.744L29.347,34.657L29.488,34.572L29.631,34.489L29.775,34.407L29.92,34.327L30.066,34.249L30.212,34.173L30.36,34.099L30.508,34.026L30.658,33.955L30.808,33.886L30.96,33.819L31.112,33.753L31.265,33.689L31.419,33.628L31.573,33.568L31.729,33.51L31.885,33.454L32.042,33.399L32.2,33.347L32.359,33.297L32.518,33.248L32.678,33.201L32.839,33.157L33.001,33.114L33.163,33.074L33.326,33.035L33.49,32.998L33.654,32.963L33.819,32.931L33.985,32.9L34.151,32.872L34.318,32.845L34.485,32.821L34.653,32.798L34.822,32.778L34.991,32.76L35.16,32.743L35.33,32.729L35.501,32.718L35.672,32.708L35.843,32.7L36.015,32.695L36.187,32.691L36.349,32.69L603.651,32.69L603.813,32.691ZM36.371,41.15L36.274,41.15L36.188,41.152L36.103,41.155L36.018,41.158L35.933,41.163L35.849,41.169L35.766,41.176L35.682,41.184L35.599,41.193L35.517,41.203L35.435,41.214L35.353,41.226L35.272,41.238L35.191,41.252L35.111,41.267L35.031,41.283L34.952,41.3L34.873,41.318L34.794,41.336L34.716,41.356L34.638,41.376L34.561,41.398L34.485,41.42L34.409,41.443L34.333,41.467L34.258,41.492L34.183,41.518L34.109,41.544L34.035,41.572L33.962,41.6L33.889,41.629L33.817,41.659L33.746,41.69L33.675,41.722L33.604,41.754L33.534,41.787L33.465,41.821L33.396,41.856L33.328,41.891L33.261,41.928L33.194,41.965L33.127,42.002L33.062,42.041L32.996,42.08L32.932,42.119L32.868,42.16L32.805,42.201L32.742,42.243L32.68,42.285L32.619,42.328L32.558,42.372L32.498,42.417L32.438,42.461L32.38,42.507L32.322,42.553L32.264,42.6L32.208,42.647L32.152,42.695L32.097,42.744L32.042,42.793L31.988,42.842L31.935,42.892L31.883,42.943L31.831,42.994L31.78,43.045L31.73,43.097L31.681,43.15L31.632,43.203L31.584,43.256L31.537,43.31L31.491,43.364L31.445,43.419L31.4,43.474L31.356,43.529L31.313,43.585L31.271,43.641L31.229,43.697L31.188,43.754L31.148,43.811L31.109,43.869L31.07,43.927L31.032,43.985L30.995,44.043L30.959,44.102L30.924,44.161L30.889,44.22L30.856,44.28L30.823,44.34L30.791,44.4L30.759,44.46L30.729,44.521L30.699,44.582L30.67,44.643L30.642,44.704L30.615,44.765L30.588,44.827L30.562,44.889L30.537,44.951L30.513,45.014L30.49,45.076L30.467,45.139L30.446,45.202L30.425,45.265L30.405,45.328L30.385,45.392L30.367,45.456L30.349,45.52L30.332,45.584L30.316,45.648L30.301,45.713L30.286,45.778L30.273,45.843L30.26,45.908L30.247,45.974L30.236,46.039L30.226,46.105L30.216,46.172L30.207,46.238L30.199,46.305L30.192,46.372L30.185,46.439L30.18,46.507L30.175,46.575L30.171,46.643L30.168,46.712L30.166,46.781L30.165,46.85L30.164,46.935L30.164,583.685L30.165,583.77L30.166,583.839L30.168,583.908L30.171,583.977L30.175,584.045L30.18,584.113L30.185,584.181L30.192,584.248L30.199,584.315L30.207,584.382L30.216,584.448L30.226,584.515L30.236,584.581L30.247,584.646L30.26,584.712L30.273,584.777L30.286,584.842L30.301,584.907L30.316,584.972L30.332,585.036L30.349,585.1L30.367,585.164L30.385,585.228L30.405,585.292L30.425,585.355L30.446,585.418L30.467,585.481L30.49,585.544L30.513,585.606L30.538,585.669L30.562,585.731L30.588,585.793L30.615,585.855L30.642,585.916L30.67,585.977L30.699,586.039L30.729,586.099L30.759,586.159L30.791,586.22L30.823,586.28L30.856,586.34L30.889,586.399L30.924,586.459L30.959,586.518L30.995,586.576L31.032,586.635L31.07,586.693L31.109,586.751L31.148,586.809L31.188,586.866L31.229,586.923L31.27,586.979L31.313,587.035L31.356,587.091L31.4,587.146L31.445,587.202L31.491,587.256L31.537,587.31L31.585,587.364L31.632,587.417L31.681,587.47L31.73,587.523L31.781,587.575L31.831,587.626L31.883,587.677L31.935,587.728L31.988,587.778L32.042,587.827L32.097,587.876L32.152,587.925L32.208,587.973L32.264,588.02L32.322,588.067L32.38,588.113L32.439,588.159L32.498,588.203L32.558,588.248L32.619,588.292L32.68,588.335L32.742,588.377L32.805,588.419L32.868,588.46L32.932,588.501L32.996,588.54L33.061,588.579L33.127,588.618L33.194,588.655L33.261,588.692L33.329,588.729L33.397,588.764L33.465,588.799L33.534,588.832L33.605,588.866L33.675,588.898L33.746,588.93L33.817,588.96L33.89,588.991L33.962,589.02L34.035,589.048L34.109,589.076L34.183,589.102L34.257,589.128L34.333,589.153L34.409,589.177L34.485,589.2L34.561,589.222L34.638,589.244L34.716,589.264L34.794,589.284L34.873,589.303L34.951,589.32L35.031,589.337L35.111,589.353L35.191,589.368L35.272,589.382L35.353,589.394L35.435,589.406L35.517,589.417L35.6,589.427L35.682,589.436L35.765,589.444L35.85,589.451L35.933,589.457L36.018,589.462L36.103,589.465L36.188,589.468L36.274,589.47L36.371,589.47L603.629,589.47L603.726,589.47L603.812,589.468L603.897,589.465L603.982,589.462L604.067,589.457L604.15,589.451L604.235,589.444L604.318,589.436L604.4,589.427L604.483,589.417L604.565,589.406L604.647,589.394L604.728,589.382L604.809,589.368L604.889,589.353L604.969,589.337L605.049,589.32L605.127,589.303L605.206,589.284L605.285,589.264L605.362,589.244L605.439,589.222L605.515,589.2L605.591,589.177L605.667,589.153L605.743,589.128L605.817,589.102L605.891,589.076L605.965,589.048L606.038,589.02L606.111,588.991L606.183,588.96L606.254,588.93L606.325,588.898L606.396,588.866L606.466,588.832L606.535,588.799L606.603,588.764L606.671,588.729L606.739,588.692L606.806,588.656L606.873,588.618L606.939,588.579L607.004,588.54L607.068,588.501L607.132,588.46L607.195,588.419L607.258,588.378L607.32,588.334L607.382,588.292L607.442,588.248L607.502,588.204L607.562,588.159L607.62,588.113L607.678,588.067L607.736,588.02L607.792,587.973L607.848,587.925L607.903,587.876L607.958,587.827L608.012,587.777L608.065,587.728L608.117,587.677L608.169,587.626L608.219,587.575L608.27,587.523L608.319,587.47L608.368,587.417L608.415,587.364L608.462,587.311L608.509,587.256L608.554,587.202L608.6,587.146L608.644,587.091L608.687,587.035L608.729,586.979L608.771,586.923L608.812,586.866L608.852,586.809L608.891,586.751L608.93,586.693L608.968,586.635L609.005,586.576L609.04,586.518L609.076,586.459L609.111,586.4L609.145,586.339L609.177,586.28L609.209,586.22L609.241,586.159L609.271,586.099L609.301,586.038L609.33,585.977L609.358,585.916L609.385,585.855L609.412,585.793L609.438,585.731L609.462,585.67L609.487,585.606L609.51,585.543L609.532,585.481L609.554,585.418L609.575,585.355L609.595,585.292L609.615,585.227L609.633,585.164L609.651,585.101L609.668,585.036L609.684,584.971L609.699,584.907L609.714,584.842L609.727,584.777L609.74,584.712L609.753,584.646L609.764,584.581L609.774,584.515L609.784,584.448L609.793,584.382L609.801,584.315L609.808,584.247L609.815,584.181L609.82,584.113L609.825,584.044L609.829,583.976L609.832,583.908L609.834,583.839L609.835,583.77L609.836,583.686L609.836,46.934L609.835,46.85L609.834,46.781L609.832,46.712L609.829,46.644L609.825,46.576L609.82,46.507L609.815,46.439L609.808,46.372L609.801,46.305L609.793,46.238L609.784,46.172L609.774,46.105L609.764,46.039L609.753,45.974L609.74,45.908L609.727,45.843L609.714,45.778L609.699,45.713L609.684,45.649L609.668,45.584L609.651,45.519L609.633,45.456L609.615,45.393L609.595,45.328L609.575,45.265L609.554,45.202L609.532,45.139L609.51,45.077L609.487,45.014L609.462,44.951L609.438,44.889L609.412,44.827L609.385,44.765L609.358,44.704L609.33,44.643L609.301,44.582L609.271,44.521L609.241,44.461L609.209,44.4L609.177,44.34L609.145,44.28L609.11,44.22L609.076,44.161L609.041,44.102L609.005,44.043L608.968,43.985L608.93,43.927L608.891,43.869L608.852,43.811L608.812,43.754L608.771,43.697L608.729,43.64L608.687,43.585L608.644,43.529L608.6,43.474L608.555,43.418L608.509,43.364L608.463,43.31L608.416,43.256L608.368,43.203L608.319,43.15L608.27,43.097L608.219,43.045L608.169,42.994L608.117,42.943L608.065,42.892L608.012,42.842L607.958,42.792L607.903,42.744L607.848,42.695L607.792,42.647L607.736,42.6L607.678,42.553L607.62,42.507L607.562,42.462L607.502,42.416L607.442,42.372L607.382,42.328L607.32,42.285L607.258,42.243L607.195,42.201L607.132,42.16L607.068,42.119L607.004,42.08L606.939,42.041L606.873,42.002L606.806,41.964L606.739,41.928L606.672,41.891L606.603,41.856L606.535,41.821L606.466,41.787L606.396,41.754L606.325,41.722L606.254,41.69L606.183,41.659L606.111,41.629L606.038,41.6L605.965,41.572L605.891,41.544L605.817,41.518L605.743,41.492L605.667,41.467L605.591,41.443L605.515,41.42L605.439,41.398L605.362,41.376L605.284,41.356L605.206,41.336L605.127,41.318L605.048,41.3L604.969,41.283L604.889,41.267L604.809,41.252L604.728,41.238L604.647,41.226L604.565,41.214L604.483,41.203L604.401,41.193L604.318,41.184L604.234,41.176L604.151,41.169L604.067,41.163L603.982,41.158L603.897,41.155L603.812,41.152L603.726,41.15L603.629,41.15L36.371,41.15Z" style="fill:rgb(51,51,51);"/>
                                </g>
                            </g>
                        </g>
                        <g id="Black" transform="matrix(1,0,0,1,-22.4475,-277.7)">
                            <path d="M374.94,238.93C393.72,238.93 408.95,254.15 408.95,272.93C408.95,290.16 408.95,310.82 408.95,328.79C408.95,345.51 395.39,359.07 378.67,359.07C358.13,359.07 326.81,359.07 306.28,359.07C289.55,359.07 276,345.51 276,328.79C276,310.82 276,287.18 276,269.21C276,252.48 289.55,238.93 306.28,238.93C326.81,238.93 355.16,238.93 374.94,238.93Z" style="fill:white;fill-opacity:0.909804;fill-rule:nonzero;stroke:rgb(51,51,51);stroke-width:5.33px;stroke-dasharray:10.67,5.33,0,0;"/>
                        </g>
                        <g id="icon" transform="matrix(5.91918,0,0,5.91918,320.028,21.3)">
                            <g transform="matrix(1,0,0,1,-8.29,-8.29)">
                                <g>
                                    <path d="M8.29,0C3.719,0 0,3.718 0,8.29C0,12.862 3.718,16.58 8.29,16.58C12.862,16.58 16.58,12.861 16.58,8.29C16.58,3.719 12.861,0 8.29,0ZM8.29,15.808C4.144,15.808 0.771,12.435 0.771,8.289C0.771,4.143 4.144,0.77 8.29,0.77C12.436,0.77 15.809,4.143 15.809,8.289C15.809,12.435 12.436,15.808 8.29,15.808Z" style="fill:rgb(3,1,4);fill-rule:nonzero;"/>
                                    <path d="M15.145,7.258C14.599,7.258 13.174,7.258 12.442,7.258C12.204,7.258 12.049,7.258 12.049,7.258C12.049,7.258 12.049,6.689 12.049,6.331C12.049,5.974 11.781,6.243 11.781,6.243C11.781,6.243 9.769,7.759 9.558,7.97C9.404,8.123 9.575,8.27 9.575,8.27L11.728,10.051C11.728,10.051 11.985,10.322 11.985,10.029C11.985,9.735 11.985,9.025 11.985,9.025L15.119,9.025C15.119,9.025 15.271,9.064 15.271,8.834C15.271,8.602 15.271,7.586 15.271,7.421C15.272,7.254 15.145,7.258 15.145,7.258Z" style="fill:rgb(3,1,4);fill-rule:nonzero;"/>
                                    <path d="M7.066,7.97C6.855,7.759 4.842,6.243 4.842,6.243C4.842,6.243 4.575,5.974 4.575,6.331C4.575,6.688 4.575,7.258 4.575,7.258C4.575,7.258 4.42,7.258 4.182,7.258C3.45,7.258 2.024,7.258 1.479,7.258C1.479,7.258 1.352,7.254 1.352,7.42C1.352,7.585 1.352,8.601 1.352,8.833C1.352,9.063 1.504,9.024 1.504,9.024L4.638,9.024C4.638,9.024 4.638,9.734 4.638,10.028C4.638,10.321 4.894,10.05 4.894,10.05L7.047,8.269C7.049,8.27 7.221,8.123 7.066,7.97Z" style="fill:rgb(3,1,4);fill-rule:nonzero;"/>
                                    <path d="M8.5,9.505C8.348,9.352 8.201,9.523 8.201,9.523L6.42,11.676C6.42,11.676 6.149,11.932 6.442,11.932C6.736,11.932 7.446,11.932 7.446,11.932L7.446,15.066C7.446,15.066 7.406,15.218 7.637,15.218C7.869,15.218 8.885,15.218 9.05,15.218C9.216,15.218 9.212,15.091 9.212,15.091C9.212,14.546 9.212,13.12 9.212,12.389C9.212,12.151 9.212,11.995 9.212,11.995C9.212,11.995 9.781,11.995 10.139,11.995C10.495,11.995 10.227,11.728 10.227,11.728C10.227,11.728 8.711,9.716 8.5,9.505Z" style="fill:rgb(3,1,4);fill-rule:nonzero;"/>
                                    <path d="M6.42,4.893L8.201,7.046C8.201,7.046 8.347,7.218 8.5,7.064C8.711,6.853 10.228,4.841 10.228,4.841C10.228,4.841 10.497,4.574 10.14,4.574C9.783,4.574 9.213,4.574 9.213,4.574C9.213,4.574 9.213,4.419 9.213,4.181C9.213,3.449 9.213,2.024 9.213,1.478C9.213,1.478 9.217,1.351 9.051,1.351C8.886,1.351 7.87,1.351 7.638,1.351C7.407,1.351 7.447,1.503 7.447,1.503L7.447,4.637C7.447,4.637 6.737,4.637 6.443,4.637C6.149,4.637 6.42,4.893 6.42,4.893Z" style="fill:rgb(3,1,4);fill-rule:nonzero;"/>
                                </g>
                            </g>
                        </g>
                    </g>
                    <g id="will-it-leak" transform="matrix(0.535226,0,0,0.64957,141.851,451.529)">
                        <text x="88.379px" y="100.409px" style="font-family:'HelveticaNeue', 'Helvetica Neue';font-size:682.315px;fill:none;">?</text>
                        <text x="88.379px" y="100.409px" style="font-family:'HelveticaNeue', 'Helvetica Neue';font-size:682.315px;fill:rgb(42,42,42);">?</text>
                    </g>
                    <g id="Will-it-leak.3f." transform="matrix(0.912981,0,0,1.10803,24.806,-73.1299)">
                        <g id="will-it-leak1" transform="matrix(0.586239,0,0,0.586239,348.568,80.8245)">
                            <text x="88.379px" y="100.409px" style="font-family:'HelveticaNeue', 'Helvetica Neue';font-size:48px;fill:none;">Will it leak?</text>
                            <text x="88.379px" y="100.409px" style="font-family:'HelveticaNeue', 'Helvetica Neue';font-size:48px;fill:rgb(21,21,255);">Will it leak?</text>
                        </g>
                        <g id="signal" transform="matrix(0.569858,0,0,0.569858,419.9,-109.192)">
                            <path id="a9y8nt61AR" d="M248.66,411.56C249.06,405.35 246.88,399.7 242.12,394.62C237.37,389.53 230.93,386.8 222.81,386.41" style="fill:rgb(255,0,68);fill-opacity:0;fill-rule:nonzero;stroke:rgb(21,21,255);stroke-width:3px;"/>
                            <path id="f2PRba2WIP" d="M285.58,410.49C284.84,393.42 279.85,379.8 270.63,369.65C261.4,359.49 246.74,353.69 226.65,352.24" style="fill:rgb(247,0,30);fill-opacity:0;fill-rule:nonzero;stroke:rgb(21,21,255);stroke-width:3px;"/>
                            <path id="aOzkSv39b" d="M266.38,411.56C266.79,400.27 263.15,390.54 255.45,382.37C247.75,374.19 237.48,369.95 224.64,369.65" style="fill:rgb(255,0,68);fill-opacity:0;fill-rule:nonzero;stroke:rgb(21,21,255);stroke-width:3px;"/>
                        </g>
                    </g>
                </g>
            </g>
        </g>
    </g>
</svg>
